<?xml version="1.0" encoding="UTF-8"?>
<svg version="1.1" xmlns="http://www.w3.org/2000/svg" width="918" height="364">
<path d="M0 0 C302.94 0 605.88 0 918 0 C918 120.12 918 240.24 918 364 C615.06 364 312.12 364 0 364 C0 243.88 0 123.76 0 0 Z " fill="#312571" transform="translate(0,0)"/>
<path d="M0 0 C1.99788438 0.34578768 3.99759451 0.68143549 6 1 C6 1.66 6 2.32 6 3 C7.1446875 2.8453125 7.1446875 2.8453125 8.3125 2.6875 C9.199375 2.790625 10.08625 2.89375 11 3 C12.75 5.4375 12.75 5.4375 14 8 C14.33 8.33 14.66 8.66 15 9 C15.07244053 11.01964199 15.08377188 13.04167124 15.0625 15.0625 C15.05347656 16.16722656 15.04445313 17.27195312 15.03515625 18.41015625 C15.02355469 19.26480469 15.01195312 20.11945312 15 21 C17.475 21.99 17.475 21.99 20 23 C18.625 25 18.625 25 17 27 C16.34 27 15.68 27 15 27 C15 26.01 15 25.02 15 24 C14.34 24 13.68 24 13 24 C12.855625 24.639375 12.71125 25.27875 12.5625 25.9375 C12 28 12 28 11 29 C8.16027465 29.32351301 5.31926263 29.5130429 2.46875 29.71875 C0.0586395 29.73385265 0.0586395 29.73385265 -1 31 C-2.99958364 31.04080783 -5.00045254 31.04254356 -7 31 C-7.66 29.02 -8.32 27.04 -9 25 C-10.98 25 -12.96 25 -15 25 C-15.33 23.35 -15.66 21.7 -16 20 C-16.33 20 -16.66 20 -17 20 C-17 14.72 -17 9.44 -17 4 C-16.34 4 -15.68 4 -15 4 C-15 3.01 -15 2.02 -15 1 C-14.06027344 0.90912109 -14.06027344 0.90912109 -13.1015625 0.81640625 C-11.87566406 0.69072266 -11.87566406 0.69072266 -10.625 0.5625 C-9.81289063 0.48128906 -9.00078125 0.40007813 -8.1640625 0.31640625 C-2.06906339 -0.57473983 -2.06906339 -0.57473983 0 0 Z " fill="#2962C6" transform="translate(643,43)"/>
<path d="M0 0 C5.61 0 11.22 0 17 0 C17 0.66 17 1.32 17 2 C16.01 2.33 15.02 2.66 14 3 C14.99 3.33 15.98 3.66 17 4 C17 4.66 17 5.32 17 6 C18.65 6 20.3 6 22 6 C22.94027276 11.01478806 23.87003982 16.11499803 22 21 C18.75831556 25.07526044 15.73443561 27.78319555 10.5 28.4375 C9.2625 28.2209375 9.2625 28.2209375 8 28 C8 27.34 8 26.68 8 26 C6.02 26 4.04 26 2 26 C2 25.34 2 24.68 2 24 C1.34 24 0.68 24 0 24 C0 23.34 0 22.68 0 22 C-0.66 22 -1.32 22 -2 22 C-4.37590142 18.29583874 -4.20500286 15.07015427 -4.125 10.75 C-4.10695313 9.48671875 -4.08890625 8.2234375 -4.0703125 6.921875 C-4.03550781 5.47554687 -4.03550781 5.47554687 -4 4 C-3.34 4 -2.68 4 -2 4 C-2 3.34 -2 2.68 -2 2 C-1.34 2 -0.68 2 0 2 C0 1.34 0 0.68 0 0 Z " fill="#435CAD" transform="translate(468,148)"/>
<path d="M0 0 C0.74886475 0.00523682 1.49772949 0.01047363 2.26928711 0.01586914 C3.07817383 0.0190918 3.88706055 0.02231445 4.72045898 0.02563477 C5.5705957 0.03401367 6.42073242 0.04239258 7.29663086 0.05102539 C8.15063477 0.05553711 9.00463867 0.06004883 9.88452148 0.06469727 C12.00108749 0.07652166 14.11761771 0.0944577 16.23413086 0.11352539 C17.22132325 7.10947734 18.01945017 13.06120528 14.29663086 19.42602539 C10.76118539 24.03281797 10.76118539 24.03281797 7.30053711 24.56274414 C6.14424805 24.64137695 4.98795898 24.72000977 3.79663086 24.80102539 C2.64291992 24.88739258 1.48920898 24.97375977 0.30053711 25.06274414 C-2.76586914 25.11352539 -2.76586914 25.11352539 -5.76586914 24.11352539 C-5.76586914 22.79352539 -5.76586914 21.47352539 -5.76586914 20.11352539 C-6.42586914 20.11352539 -7.08586914 20.11352539 -7.76586914 20.11352539 C-7.9008116 17.50763649 -7.99989213 14.90870428 -8.07836914 12.30102539 C-8.12026367 11.56303711 -8.1621582 10.82504883 -8.20532227 10.06469727 C-8.25415039 7.90649414 -8.25415039 7.90649414 -7.76586914 4.11352539 C-5.30883789 2.16430664 -5.30883789 2.16430664 -2.76586914 1.11352539 C-1.76586914 0.11352539 -1.76586914 0.11352539 0 0 Z " fill="#37147D" transform="translate(261.765869140625,203.886474609375)"/>
<path d="M0 0 C0.99 0.33 1.98 0.66 3 1 C3 1.66 3 2.32 3 3 C3.94875 2.443125 4.8975 1.88625 5.875 1.3125 C10.23231432 -0.56504194 13.34789849 0.43862394 17.6953125 1.96484375 C20.54487754 3.24473313 22.72622608 4.86833695 25 7 C25.66 7.33 26.32 7.66 27 8 C26.67 8.66 26.34 9.32 26 10 C25.34 10 24.68 10 24 10 C24.103125 11.0725 24.20625 12.145 24.3125 13.25 C24 17 24 17 22.25 19.4375 C17.36400217 21.78653742 12.33147527 21.84301105 7 21 C5.14453125 19.828125 5.14453125 19.828125 4 18 C3.70703125 15.30078125 3.70703125 15.30078125 3.8125 12.3125 C3.85310547 10.82169922 3.85310547 10.82169922 3.89453125 9.30078125 C3.94673828 8.16189453 3.94673828 8.16189453 4 7 C3.34 7 2.68 7 2 7 C2 6.01 2 5.02 2 4 C1.01 3.67 0.02 3.34 -1 3 C-0.67 2.01 -0.34 1.02 0 0 Z " fill="#3177D4" transform="translate(629,46)"/>
<path d="M0 0 C2 2 2 2 2.265625 4.2421875 C2.26046875 5.11101562 2.2553125 5.97984375 2.25 6.875 C2.25515625 7.73867187 2.2603125 8.60234375 2.265625 9.4921875 C1.98890649 12.10473577 1.3185995 13.7500088 0 16 C-1.77007714 16.08114106 -3.54122098 16.13925505 -5.3125 16.1875 C-6.29863281 16.22230469 -7.28476562 16.25710937 -8.30078125 16.29296875 C-11 16 -11 16 -12.8203125 14.765625 C-14.71534084 11.92935742 -14.59744719 9.49543811 -14.47265625 6.1640625 C-14 4 -14 4 -11.5 1.4375 C-7.17133619 -0.34034406 -4.63918898 -0.4639189 0 0 Z " fill="#6B90D1" transform="translate(483,153)"/>
<path d="M0 0 C0.90492188 0.02320313 1.80984375 0.04640625 2.7421875 0.0703125 C4.10730469 0.09738281 4.10730469 0.09738281 5.5 0.125 C6.19867188 0.14820313 6.89734375 0.17140625 7.6171875 0.1953125 C7.6171875 0.8553125 7.6171875 1.5153125 7.6171875 2.1953125 C8.9371875 2.1953125 10.2571875 2.1953125 11.6171875 2.1953125 C11.6171875 5.4953125 11.6171875 8.7953125 11.6171875 12.1953125 C5.58477453 16.17670506 5.58477453 16.17670506 1.3671875 16.2578125 C-1.3828125 15.1953125 -1.3828125 15.1953125 -3.2578125 13.1328125 C-4.77265382 9.17739349 -4.72939773 6.42365235 -4.3828125 2.1953125 C-2.3828125 0.1953125 -2.3828125 0.1953125 0 0 Z " fill="#6B27CE" transform="translate(262.3828125,205.8046875)"/>
<path d="M0 0 C1.62418745 -0.08090971 3.24951745 -0.13914995 4.875 -0.1875 C5.77992188 -0.22230469 6.68484375 -0.25710937 7.6171875 -0.29296875 C8.79667969 -0.14794922 8.79667969 -0.14794922 10 0 C10.66 0.99 11.32 1.98 12 3 C14.58380177 3.25030977 14.58380177 3.25030977 17 3 C16.67 4.32 16.34 5.64 16 7 C14.64455078 6.94779297 14.64455078 6.94779297 13.26171875 6.89453125 C11.49248047 6.85392578 11.49248047 6.85392578 9.6875 6.8125 C8.51574219 6.77769531 7.34398437 6.74289063 6.13671875 6.70703125 C2.67057315 7.03076839 2.15581908 7.47271671 0 10 C-0.99 10 -1.98 10 -3 10 C-3 14.62 -3 19.24 -3 24 C-4.32 24 -5.64 24 -7 24 C-7 18.06 -7 12.12 -7 6 C-5.68 6 -4.36 6 -3 6 C-3 5.34 -3 4.68 -3 4 C-2.34 4 -1.68 4 -1 4 C-0.67 2.68 -0.34 1.36 0 0 Z " fill="#2B1173" transform="translate(257,198)"/>
<path d="M0 0 C2.5 1 2.5 1 4 2 C4 2.66 4 3.32 4 4 C5.65 4 7.3 4 9 4 C10.31540172 9.85951675 10.03119782 12.94800363 7 18 C4.3125 18.9375 4.3125 18.9375 2 19 C2.24363281 18.17048828 2.24363281 18.17048828 2.4921875 17.32421875 C3.05280849 14.7582996 3.13275333 12.43700323 3.125 9.8125 C3.12757813 8.93207031 3.13015625 8.05164063 3.1328125 7.14453125 C3.23865033 5.01796809 3.23865033 5.01796809 2 4 C-3.49050043 3.4936341 -3.49050043 3.4936341 -8.375 5.5 C-8.91125 5.995 -9.4475 6.49 -10 7 C-10.66 7 -11.32 7 -12 7 C-12 9.97 -12 12.94 -12 16 C-11.01 16.33 -10.02 16.66 -9 17 C-9 17.66 -9 18.32 -9 19 C-5.7 19 -2.4 19 1 19 C0.67 19.66 0.34 20.32 0 21 C-1.39482079 21.08204828 -2.79108728 21.13966204 -4.1875 21.1875 C-4.96480469 21.22230469 -5.74210937 21.25710937 -6.54296875 21.29296875 C-9.78809728 20.90602974 -11.49482509 20.10801303 -14 18 C-15.1378414 13.18165484 -15.35608098 7.4803954 -12.92578125 3.03515625 C-8.96620604 -0.70745594 -5.05498384 -0.57072398 0 0 Z " fill="#5374C2" transform="translate(481,150)"/>
<path d="M0 0 C2.26921536 -0.13489391 4.5407067 -0.23193995 6.8125 -0.3125 C8.70935547 -0.39951172 8.70935547 -0.39951172 10.64453125 -0.48828125 C14 0 14 0 15.88671875 2.45703125 C16.25410156 3.29621094 16.62148437 4.13539063 17 5 C17.33 5.33 17.66 5.66 18 6 C18.4802529 11.04265543 17.66025426 14.67708683 15 19 C10.95709627 20.98644837 6.45165897 21.27822869 2 21 C2 20.01 2 19.02 2 18 C1.34 18 0.68 18 0 18 C0 16.68 0 15.36 0 14 C0.66 14 1.32 14 2 14 C2 14.66 2 15.32 2 16 C5.96 15.34 9.92 14.68 14 14 C14 11.36 14 8.72 14 6 C13.34 6 12.68 6 12 6 C11.34 5.01 10.68 4.02 10 3 C7 2.5 7 2.5 4 3 C3.01 4.485 3.01 4.485 2 6 C1.34 6 0.68 6 0 6 C0 7.98 0 9.96 0 12 C-0.66 12 -1.32 12 -2 12 C-2 9.36 -2 6.72 -2 4 C-1.34 4 -0.68 4 0 4 C0 2.68 0 1.36 0 0 Z " fill="#241175" transform="translate(224,180)"/>
<path d="M0 0 C1.98 0 3.96 0 6 0 C6.66 1.32 7.32 2.64 8 4 C8.66 4 9.32 4 10 4 C10 6.64 10 9.28 10 12 C6.09971775 14.60018816 2.52565431 14.15085514 -2 14 C-2 13.34 -2 12.68 -2 12 C-2.66 12 -3.32 12 -4 12 C-4 9.36 -4 6.72 -4 4 C-3.34 4 -2.68 4 -2 4 C-1.34 2.68 -0.68 1.36 0 0 Z " fill="#3817AE" transform="translate(228,182)"/>
<path d="M0 0 C1.93166016 0.01740234 1.93166016 0.01740234 3.90234375 0.03515625 C5.19269531 0.04417969 6.48304688 0.05320313 7.8125 0.0625 C8.81152344 0.07410156 9.81054688 0.08570313 10.83984375 0.09765625 C13.43099339 4.58273856 13.72842651 9.02750755 12.83984375 14.09765625 C10.40234375 16.03515625 10.40234375 16.03515625 7.83984375 17.09765625 C7.50984375 18.08765625 7.17984375 19.07765625 6.83984375 20.09765625 C4.19984375 20.09765625 1.55984375 20.09765625 -1.16015625 20.09765625 C-1.16015625 19.43765625 -1.16015625 18.77765625 -1.16015625 18.09765625 C-1.92328125 17.95328125 -2.68640625 17.80890625 -3.47265625 17.66015625 C-6.16015625 17.09765625 -6.16015625 17.09765625 -9.16015625 16.09765625 C-9.29519763 14.16206312 -9.39216754 12.22378425 -9.47265625 10.28515625 C-9.53066406 9.20621094 -9.58867187 8.12726563 -9.6484375 7.015625 C-9.16015625 4.09765625 -9.16015625 4.09765625 -6.703125 2.2734375 C-5.86394531 1.88542969 -5.02476562 1.49742187 -4.16015625 1.09765625 C-3.16015625 0.09765625 -3.16015625 0.09765625 0 0 Z M-5.16015625 4.09765625 C-5.50674148 8.3259961 -5.54999757 11.07973724 -4.03515625 15.03515625 C-2.26298137 17.2937994 -2.26298137 17.2937994 0.58984375 18.16015625 C5.03920545 18.0745916 7.15145767 16.53199106 10.83984375 14.09765625 C10.83984375 10.79765625 10.83984375 7.49765625 10.83984375 4.09765625 C9.51984375 4.09765625 8.19984375 4.09765625 6.83984375 4.09765625 C6.83984375 3.43765625 6.83984375 2.77765625 6.83984375 2.09765625 C5.21520533 2.04370147 3.59005834 2.0048843 1.96484375 1.97265625 C1.05992187 1.94945312 0.155 1.92625 -0.77734375 1.90234375 C-3.34822619 1.85440789 -3.34822619 1.85440789 -5.16015625 4.09765625 Z " fill="#4917AA" transform="translate(263.16015625,203.90234375)"/>
<path d="M0 0 C3.33333333 0 6.66666667 0 10 0 C10 0.99 10 1.98 10 3 C10.99 3 11.98 3 13 3 C13 4.65 13 6.3 13 8 C12.34 8 11.68 8 11 8 C11 8.66 11 9.32 11 10 C8.69 10 6.38 10 4 10 C4 9.34 4 8.68 4 8 C2.35 8 0.7 8 -1 8 C-1.33 6.68 -1.66 5.36 -2 4 C-1.34 4 -0.68 4 0 4 C0 2.68 0 1.36 0 0 Z " fill="#9217A6" transform="translate(370,354)"/>
<path d="M0 0 C2 2 2 2 2.25 4.375 C1.99345272 7.06874642 1.36770587 8.69199635 0 11 C-6.75 11.125 -6.75 11.125 -9 10 C-9.36103152 3.6217765 -9.36103152 3.6217765 -7.875 1.0625 C-5.15050101 -0.48138276 -3.07108055 -0.3267107 0 0 Z " fill="#7DD5EB" transform="translate(647,53)"/>
<path d="M0 0 C1.875 0.3125 1.875 0.3125 4 1 C6 4 6 4 5.6875 6.0625 C5 8 5 8 4 10 C5.32 10 6.64 10 8 10 C7.67 11.65 7.34 13.3 7 15 C4.625 15.625 4.625 15.625 2 16 C-1.26737303 12.73262697 -1.95672896 9.16831802 -2.125 4.625 C-2.08375 3.75875 -2.0425 2.8925 -2 2 C-1.34 2 -0.68 2 0 2 C0 1.34 0 0.68 0 0 Z " fill="#5A0E6A" transform="translate(524,336)"/>
<path d="M0 0 C0.33 0.99 0.66 1.98 1 3 C3.50447516 4.21869929 3.50447516 4.21869929 6 5 C4.625 7 4.625 7 3 9 C2.34 9 1.68 9 1 9 C1 8.01 1 7.02 1 6 C0.34 6 -0.32 6 -1 6 C-1.144375 6.639375 -1.28875 7.27875 -1.4375 7.9375 C-2 10 -2 10 -3 11 C-5.83972535 11.32351301 -8.68073737 11.5130429 -11.53125 11.71875 C-13.9413605 11.73385265 -13.9413605 11.73385265 -15 13 C-16.99958364 13.04080783 -19.00045254 13.04254356 -21 13 C-21 12.34 -21 11.68 -21 11 C-17.88875801 9.19231079 -15.5730503 8.79098774 -12 8.6875 C-7.7227547 8.37875344 -7.7227547 8.37875344 -4.5 5.4375 C-4.005 4.633125 -3.51 3.82875 -3 3 C-2.34 3 -1.68 3 -1 3 C-0.67 2.01 -0.34 1.02 0 0 Z " fill="#2353B4" transform="translate(657,61)"/>
<path d="M0 0 C3.3 0 6.6 0 10 0 C10 2.97 10 5.94 10 9 C7.04335481 10.4783226 4.25770263 10.06032783 1 10 C-0.60725635 6.78548731 -0.05748185 3.56387464 0 0 Z " fill="#A54ED7" transform="translate(260,208)"/>
<path d="M0 0 C0.99386719 0.10183594 1.98773437 0.20367187 3.01171875 0.30859375 C3.77097656 0.39238281 4.53023437 0.47617188 5.3125 0.5625 C5.9375 2.375 5.9375 2.375 6.3125 4.5625 C4.3125 7.5625 4.3125 7.5625 2.1484375 8.07421875 C0.93027344 8.16123047 0.93027344 8.16123047 -0.3125 8.25 C-1.12976563 8.31574219 -1.94703125 8.38148437 -2.7890625 8.44921875 C-3.41554688 8.48660156 -4.04203125 8.52398437 -4.6875 8.5625 C-5.3475 7.2425 -6.0075 5.9225 -6.6875 4.5625 C-7.3475 4.5625 -8.0075 4.5625 -8.6875 4.5625 C-8.6875 3.2425 -8.6875 1.9225 -8.6875 0.5625 C-5.3763987 -0.54120043 -3.44001051 -0.36423641 0 0 Z " fill="#4C649B" transform="translate(670.6875,87.4375)"/>
<path d="M0 0 C0.66 1.32 1.32 2.64 2 4 C2.66 4 3.32 4 4 4 C4.02689216 5.47906892 4.04634621 6.95827483 4.0625 8.4375 C4.07410156 9.26121094 4.08570313 10.08492187 4.09765625 10.93359375 C4 13 4 13 3 14 C1.21162378 14.12524459 -0.58228214 14.17573676 -2.375 14.1875 C-3.35210938 14.20167969 -4.32921875 14.21585938 -5.3359375 14.23046875 C-8 14 -8 14 -11 12 C-11.67175573 4.94656489 -11.67175573 4.94656489 -9.625 2.0625 C-6.28826196 -0.11921333 -3.96310149 -0.08615438 0 0 Z M-7.875 3.0625 C-9.58196395 6.00227124 -9.18799766 8.67870803 -9 12 C-6.04335481 13.4783226 -3.25770263 13.06032783 0 13 C1.84651134 9.88401212 2.38079379 7.61754103 2 4 C0.12061828 1.70172688 0.12061828 1.70172688 -2.9375 1.6875 C-5.91095098 1.78351379 -5.91095098 1.78351379 -7.875 3.0625 Z " fill="#4CB2E1" transform="translate(647,51)"/>
<path d="M0 0 C0.33 0.66 0.66 1.32 1 2 C1.66 2 2.32 2 3 2 C5.1875 4.1875 5.1875 4.1875 7 7 C6.75 9.8125 6.75 9.8125 6 12 C5.01 11.34 4.02 10.68 3 10 C3 9.01 3 8.02 3 7 C2.01 6.67 1.02 6.34 0 6 C0 7.65 0 9.3 0 11 C-0.99 11.33 -1.98 11.66 -3 12 C-3.66 10.35 -4.32 8.7 -5 7 C-5 7.66 -5 8.32 -5 9 C-5.66 9 -6.32 9 -7 9 C-7 7.02 -7 5.04 -7 3 C-6.67 3.66 -6.34 4.32 -6 5 C-5.34 5 -4.68 5 -4 5 C-4 4.01 -4 3.02 -4 2 C-2.68 1.34 -1.36 0.68 0 0 Z " fill="#200B44" transform="translate(165,335)"/>
<path d="M0 0 C-0.33 1.32 -0.66 2.64 -1 4 C-1.90363281 3.96519531 -2.80726563 3.93039063 -3.73828125 3.89453125 C-5.50751953 3.85392578 -5.50751953 3.85392578 -7.3125 3.8125 C-8.48425781 3.77769531 -9.65601563 3.74289063 -10.86328125 3.70703125 C-14.32942685 4.03076839 -14.84418092 4.47271671 -17 7 C-17.99 7 -18.98 7 -20 7 C-20 10.96 -20 14.92 -20 19 C-20.66 19 -21.32 19 -22 19 C-22.10841951 17.08458862 -22.18578079 15.16740227 -22.25 13.25 C-22.29640625 12.18265625 -22.3428125 11.1153125 -22.390625 10.015625 C-22 7 -22 7 -20.109375 4.609375 C-18 3 -18 3 -16 3 C-16 2.34 -16 1.68 -16 1 C-13.70839646 0.83246763 -11.41671509 0.66599948 -9.125 0.5 C-7.84882813 0.4071875 -6.57265625 0.314375 -5.2578125 0.21875 C-3.50763316 0.10123196 -1.75412035 0 0 0 Z " fill="#3A1692" transform="translate(274,201)"/>
<path d="M0 0 C2 0 2 0 3.62036133 1.2355957 C5.35796922 3.45780279 5.29093248 4.45259282 5.07421875 7.23046875 C5.01943359 8.03291016 4.96464844 8.83535156 4.90820312 9.66210938 C4.83537109 10.49548828 4.76253906 11.32886719 4.6875 12.1875 C4.62626953 13.03248047 4.56503906 13.87746094 4.50195312 14.74804688 C4.34881209 16.83312095 4.17625843 18.91675276 4 21 C3.34 21 2.68 21 2 21 C1.67 19.35 1.34 17.7 1 16 C0.67 16 0.34 16 0 16 C0 10.72 0 5.44 0 0 Z " fill="#2559BB" transform="translate(626,47)"/>
<path d="M0 0 C0.99 0 1.98 0 3 0 C2.67 2.31 2.34 4.62 2 7 C2.66 7 3.32 7 4 7 C2.84826645 9.46800047 1.95216435 11.04783565 0 13 C0 12.34 0 11.68 0 11 C-0.61875 10.9175 -1.2375 10.835 -1.875 10.75 C-4 10 -4 10 -5.25 7.9375 C-5.62125 6.9784375 -5.62125 6.9784375 -6 6 C-5.01 5.67 -4.02 5.34 -3 5 C-3 4.34 -3 3.68 -3 3 C-2.34 3 -1.68 3 -1 3 C-0.67 2.01 -0.34 1.02 0 0 Z " fill="#54619B" transform="translate(689,121)"/>
<path d="M0 0 C2.5 0.25 2.5 0.25 4.5 2.25 C4.6875 5.3125 4.6875 5.3125 4.5 8.25 C3.5 9.25 3.5 9.25 1.125 9.4375 C-1.5 9.25 -1.5 9.25 -4.5 7.25 C-4.8125 4.75 -4.8125 4.75 -4.5 2.25 C-2.5 0.25 -2.5 0.25 0 0 Z " fill="#562CC9" transform="translate(231.5,184.75)"/>
<path d="M0 0 C0.99 0.33 1.98 0.66 3 1 C2.34 1.66 1.68 2.32 1 3 C1.33 3.66 1.66 4.32 2 5 C5.04581269 5.46954261 5.04581269 5.46954261 8.5625 5.625 C9.76003906 5.69976562 10.95757812 5.77453125 12.19140625 5.8515625 C13.11824219 5.90054687 14.04507812 5.94953125 15 6 C14.67 6.66 14.34 7.32 14 8 C9.05 8 4.1 8 -1 8 C-1.33 8.66 -1.66 9.32 -2 10 C-2.66 9.67 -3.32 9.34 -4 9 C-4 6.69 -4 4.38 -4 2 C-2.68 2 -1.36 2 0 2 C0 1.34 0 0.68 0 0 Z " fill="#831597" transform="translate(336,348)"/>
<path d="M0 0 C2.31 0 4.62 0 7 0 C7.33 0.99 7.66 1.98 8 3 C8.99 2.67 9.98 2.34 11 2 C11 2.99 11 3.98 11 5 C8.12498789 7.07639763 5.48624056 8.3543999 2 9 C-0.29013653 5.5647952 -0.17842973 4.014669 0 0 Z " fill="#49105F" transform="translate(500,288)"/>
<path d="M0 0 C2.5 0.125 2.5 0.125 3.5 1.125 C3.625 4.625 3.625 4.625 3.5 8.125 C3.17 8.455 2.84 8.785 2.5 9.125 C0.16055264 8.83769945 -2.1739143 8.50563221 -4.5 8.125 C-3.48810613 0.17440531 -3.48810613 0.17440531 0 0 Z " fill="#D7E6F2" transform="translate(477.5,155.875)"/>
<path d="M0 0 C3.1875 -0.3125 3.1875 -0.3125 6 0 C6.88492145 2.47778006 7.11637742 3.66056586 6.25 6.1875 C5 8 5 8 2 9 C1.67 9.66 1.34 10.32 1 11 C0.01 10.67 -0.98 10.34 -2 10 C-1.67 9.01 -1.34 8.02 -1 7 C-1.66 6.34 -2.32 5.68 -3 5 C-1.875 2.5 -1.875 2.5 0 0 Z " fill="#43437D" transform="translate(39,254)"/>
<path d="M0 0 C2.32528287 2.32528287 2.29511025 2.84665898 2.3125 6 C2.32925781 6.70125 2.34601563 7.4025 2.36328125 8.125 C2.18345703 9.053125 2.18345703 9.053125 2 10 C-1.47042703 12.31361802 -2.91834173 12.51020728 -7 12 C-9.35210784 9.88310295 -9.91810953 8.55958485 -10.375 5.4375 C-10 3 -10 3 -8.9375 1.1875 C-5.94449731 -0.646921 -3.42183337 -0.31107576 0 0 Z M-6 1 C-7.76462683 4.08809695 -8 5.23312136 -8 9 C-5.6739143 9.38063221 -3.33944736 9.71269945 -1 10 C0.40432936 8.82281015 0.40432936 8.82281015 0.125 5.5 C0.40432936 2.17718985 0.40432936 2.17718985 -1 1 C-2.66617115 0.95936168 -4.33388095 0.957279 -6 1 Z " fill="#93BBE3" transform="translate(481,155)"/>
<path d="M0 0 C1.60725635 3.21451269 1.05748185 6.43612536 1 10 C3.43387753 11.21693876 5.41838846 11.31959896 8.125 11.5625 C9.03507813 11.64628906 9.94515625 11.73007813 10.8828125 11.81640625 C11.93082031 11.90728516 11.93082031 11.90728516 13 12 C12.67 12.66 12.34 13.32 12 14 C10.06318839 14.08107583 8.1254066 14.13922475 6.1875 14.1875 C5.10855469 14.22230469 4.02960937 14.25710937 2.91796875 14.29296875 C0 14 0 14 -1.86328125 12.73828125 C-3.85953403 9.68559229 -3.57041719 6.51025965 -3 3 C-1.5 1 -1.5 1 0 0 Z " fill="#3A8AD5" transform="translate(636,53)"/>
<path d="M0 0 C1.65 0 3.3 0 5 0 C5.33 1.32 5.66 2.64 6 4 C3.15314251 6.31966166 0.5236125 7.91581154 -3 9 C-3.99 8.67 -4.98 8.34 -6 8 C-5.67 6.68 -5.34 5.36 -5 4 C-3.68 4 -2.36 4 -1 4 C-0.67 2.68 -0.34 1.36 0 0 Z " fill="#6D2680" transform="translate(462,334)"/>
<path d="M0 0 C1.65 0.99 3.3 1.98 5 3 C4.8125 4.8125 4.8125 4.8125 4 7 C1.4375 8.75 1.4375 8.75 -1 10 C-1 9.34 -1 8.68 -1 8 C-1.99 8 -2.98 8 -4 8 C-4.33 6.35 -4.66 4.7 -5 3 C-3.35 2.01 -1.7 1.02 0 0 Z " fill="#613F74" transform="translate(737,332)"/>
<path d="M0 0 C0.66 1.32 1.32 2.64 2 4 C-3.0940919 10.86214442 -3.0940919 10.86214442 -6.875 11.4375 C-7.57625 11.293125 -8.2775 11.14875 -9 11 C-8.67 9.02 -8.34 7.04 -8 5 C-6.35 4.67 -4.7 4.34 -3 4 C-3 3.34 -3 2.68 -3 2 C-2.01 1.34 -1.02 0.68 0 0 Z " fill="#809BC3" transform="translate(587,106)"/>
<path d="M0 0 C0.90492188 0.02320313 1.80984375 0.04640625 2.7421875 0.0703125 C4.10730469 0.09738281 4.10730469 0.09738281 5.5 0.125 C6.19867188 0.14820313 6.89734375 0.17140625 7.6171875 0.1953125 C7.6171875 0.8553125 7.6171875 1.5153125 7.6171875 2.1953125 C4.3171875 2.1953125 1.0171875 2.1953125 -2.3828125 2.1953125 C-2.0528125 5.4953125 -1.7228125 8.7953125 -1.3828125 12.1953125 C0.5971875 12.1953125 2.5771875 12.1953125 4.6171875 12.1953125 C4.2871875 12.8553125 3.9571875 13.5153125 3.6171875 14.1953125 C1.6371875 14.1953125 -0.3428125 14.1953125 -2.3828125 14.1953125 C-4.99664136 10.27456921 -4.67667636 6.75020233 -4.3828125 2.1953125 C-2.3828125 0.1953125 -2.3828125 0.1953125 0 0 Z " fill="#6E2ACB" transform="translate(262.3828125,205.8046875)"/>
<path d="M0 0 C2.64 0 5.28 0 8 0 C8 0.66 8 1.32 8 2 C6.35 2.33 4.7 2.66 3 3 C3 4.32 3 5.64 3 7 C6.93075644 6.42547254 6.93075644 6.42547254 10 4 C9.125 8.875 9.125 8.875 8 10 C5.32941149 10.14115161 2.67567762 10.04247107 0 10 C0 6.7 0 3.4 0 0 Z " fill="#4E0D5E" transform="translate(570,354)"/>
<path d="M0 0 C0.99 0.33 1.98 0.66 3 1 C4.33106622 1.34227417 5.66400079 1.67751743 7 2 C6.67 3.98 6.34 5.96 6 8 C5.01 8 4.02 8 3 8 C3 6.35 3 4.7 3 3 C2.01 3.33 1.02 3.66 0 4 C-0.33218192 7.00259517 -0.33218192 7.00259517 1.5 8.6875 C2.2425 9.3371875 2.2425 9.3371875 3 10 C1.35 9.67 -0.3 9.34 -2 9 C-2.6875 6.1875 -2.6875 6.1875 -3 3 C-1.5625 1.125 -1.5625 1.125 0 0 Z " fill="#220635" transform="translate(911,192)"/>
<path d="M0 0 C2.33944736 0.28730055 4.6739143 0.61936779 7 1 C8 4 8 4 7 7 C4.9375 7.6875 4.9375 7.6875 3 8 C3 7.34 3 6.68 3 6 C1.68 6.33 0.36 6.66 -1 7 C-1.04254356 5.00045254 -1.04080783 2.99958364 -1 1 C-0.67 0.67 -0.34 0.34 0 0 Z " fill="#994FA7" transform="translate(361,343)"/>
<path d="M0 0 C0.928125 0.20625 1.85625 0.4125 2.8125 0.625 C3 3.5 3 3.5 2.8125 6.625 C1.8225 7.285 0.8325 7.945 -0.1875 8.625 C-4.9875 6.16346154 -4.9875 6.16346154 -6 3.4375 C-6.061875 2.839375 -6.12375 2.24125 -6.1875 1.625 C-3.1875 -0.375 -3.1875 -0.375 0 0 Z " fill="#7E669F" transform="translate(672.1875,228.375)"/>
<path d="M0 0 C5.75 -0.125 5.75 -0.125 8 1 C7.25 5.75 7.25 5.75 5 8 C2.375 7.625 2.375 7.625 0 7 C0 4.69 0 2.38 0 0 Z " fill="#270F43" transform="translate(730,226)"/>
<path d="M0 0 C1.4540625 0.0309375 1.4540625 0.0309375 2.9375 0.0625 C2.9375 0.7225 2.9375 1.3825 2.9375 2.0625 C1.9475 2.5575 1.9475 2.5575 0.9375 3.0625 C1.164375 3.825625 1.39125 4.58875 1.625 5.375 C1.9375 8.0625 1.9375 8.0625 0.625 9.875 C-1.0625 11.0625 -1.0625 11.0625 -3.0625 11.0625 C-2.7325 9.7425 -2.4025 8.4225 -2.0625 7.0625 C-3.0525 7.3925 -4.0425 7.7225 -5.0625 8.0625 C-4.046875 0.08258929 -4.046875 0.08258929 0 0 Z " fill="#2E52A3" transform="translate(689.0625,20.9375)"/>
<path d="M0 0 C3.33333333 0 6.66666667 0 10 0 C10 0.99 10 1.98 10 3 C10.99 3.33 11.98 3.66 13 4 C12.34 4 11.68 4 11 4 C11 4.66 11 5.32 11 6 C10.01 5.67 9.02 5.34 8 5 C8 4.01 8 3.02 8 2 C5.69 2.33 3.38 2.66 1 3 C1.33 3.99 1.66 4.98 2 6 C3.32 5.67 4.64 5.34 6 5 C6.33 5.66 6.66 6.32 7 7 C4.29120665 8.35439668 1.99066732 8.06501451 -1 8 C-1.33 6.68 -1.66 5.36 -2 4 C-1.34 4 -0.68 4 0 4 C0 2.68 0 1.36 0 0 Z " fill="#821894" transform="translate(370,354)"/>
<path d="M0 0 C2.97 0.495 2.97 0.495 6 1 C6.33 2.65 6.66 4.3 7 6 C4 8 4 8 0 8 C-1.125 2.25 -1.125 2.25 0 0 Z " fill="#5D74A7" transform="translate(696,54)"/>
<path d="M0 0 C2.64 0 5.28 0 8 0 C8.33 0.99 8.66 1.98 9 3 C7 6 7 6 4.5 6.8125 C3.2625 6.9053125 3.2625 6.9053125 2 7 C0 5 0 5 -0.125 2.375 C-0.08375 1.59125 -0.0425 0.8075 0 0 Z " fill="#9766AD" transform="translate(586,269)"/>
<path d="M0 0 C1.98 0 3.96 0 6 0 C6.66 1.65 7.32 3.3 8 5 C6.25 6.5625 6.25 6.5625 4 8 C1.75 7.6875 1.75 7.6875 0 7 C0 4.69 0 2.38 0 0 Z " fill="#120747" transform="translate(128,248)"/>
<path d="M0 0 C0.66 0.33 1.32 0.66 2 1 C1.51395427 5.37441156 0.26143936 7.11129656 -3 10 C-3.7425 10.7425 -4.485 11.485 -5.25 12.25 C-5.8275 12.8275 -6.405 13.405 -7 14 C-6.67 12.02 -6.34 10.04 -6 8 C-6.66 7.67 -7.32 7.34 -8 7 C-7.01 6.34 -6.02 5.68 -5 5 C-4.505 3.9790625 -4.505 3.9790625 -4 2.9375 C-3 1 -3 1 0 0 Z " fill="#525294" transform="translate(673,158)"/>
<path d="M0 0 C0 0.66 0 1.32 0 2 C-2.05078125 2.22786458 -4.1015625 2.45572917 -6.15234375 2.68359375 C-8.01140229 2.81886614 -8.01140229 2.81886614 -9 4 C-9.23376923 10.08468557 -9.23376923 10.08468557 -8 16 C-9.32 15.34 -10.64 14.68 -12 14 C-12.6132879 5.07325383 -12.6132879 5.07325383 -10.5 1.375 C-6.85379595 -0.63041222 -4.12814187 -0.27520946 0 0 Z " fill="#501FB9" transform="translate(268,204)"/>
<path d="M0 0 C2.64 0 5.28 0 8 0 C8 1.32 8 2.64 8 4 C4.78571429 7 4.78571429 7 2 7 C0 4 0 4 0 0 Z " fill="#838CB8" transform="translate(756,68)"/>
<path d="M0 0 C4 0 4 0 5.75 1.5 C6.1625 1.995 6.575 2.49 7 3 C6 5 5 7 4 9 C2.35 9 0.7 9 -1 9 C-0.67 6.03 -0.34 3.06 0 0 Z " fill="#8D8FBC" transform="translate(660,158)"/>
<path d="M0 0 C0.66 0 1.32 0 2 0 C2 0.66 2 1.32 2 2 C2.9590625 2.1546875 2.9590625 2.1546875 3.9375 2.3125 C4.618125 2.539375 5.29875 2.76625 6 3 C6.33 3.99 6.66 4.98 7 6 C5 8 5 8 2.375 8.125 C1.59125 8.08375 0.8075 8.0425 0 8 C0 7.01 0 6.02 0 5 C-0.66 5 -1.32 5 -2 5 C-2 4.01 -2 3.02 -2 2 C-1.34 2 -0.68 2 0 2 C0 1.34 0 0.68 0 0 Z " fill="#5F78A0" transform="translate(368,118)"/>
<path d="M0 0 C3.69230769 0.69230769 3.69230769 0.69230769 5 2 C5.04080783 3.99958364 5.04254356 6.00045254 5 8 C3.02 8.33 1.04 8.66 -1 9 C-1.09765625 2.84765625 -1.09765625 2.84765625 -1 1 C-0.67 0.67 -0.34 0.34 0 0 Z " fill="#76A0CB" transform="translate(449,56)"/>
<path d="M0 0 C3.14624993 -0.26218749 4.61837017 -0.24754367 7.3125 1.5 C8.1478125 2.2425 8.1478125 2.2425 9 3 C7.125 6.875 7.125 6.875 6 8 C4.00041636 8.04080783 1.99954746 8.04254356 0 8 C0 7.34 0 6.68 0 6 C1.32 5.67 2.64 5.34 4 5 C4 4.34 4 3.68 4 3 C3.01 3 2.02 3 1 3 C0.34 3.66 -0.32 4.32 -1 5 C-1.33 4.01 -1.66 3.02 -2 2 C-1.34 2 -0.68 2 0 2 C0 1.34 0 0.68 0 0 Z " fill="#111147" transform="translate(28,100)"/>
<path d="M0 0 C1.32 0.33 2.64 0.66 4 1 C3.01 1.495 3.01 1.495 2 2 C2 2.66 2 3.32 2 4 C2.66 4 3.32 4 4 4 C4.66 3.34 5.32 2.68 6 2 C6.33 2.99 6.66 3.98 7 5 C5.25 7.6875 5.25 7.6875 3 10 C2.01 10 1.02 10 0 10 C0 9.01 0 8.02 0 7 C-1.32 6.67 -2.64 6.34 -4 6 C-4 5.34 -4 4.68 -4 4 C-2.68 4 -1.36 4 0 4 C0 2.68 0 1.36 0 0 Z " fill="#0E0D49" transform="translate(54,274)"/>
<path d="M0 0 C2.66666667 0.66666667 5.33333333 1.33333333 8 2 C8 2.66 8 3.32 8 4 C10.64 4 13.28 4 16 4 C16 4.66 16 5.32 16 6 C12.7 6 9.4 6 6 6 C6 5.34 6 4.68 6 4 C4.02 4 2.04 4 0 4 C0 2.68 0 1.36 0 0 Z " fill="#3E138E" transform="translate(254,220)"/>
<path d="M0 0 C1.98 0 3.96 0 6 0 C5.01 0.66 4.02 1.32 3 2 C3 2.99 3 3.98 3 5 C3.99 5 4.98 5 6 5 C6.66 4.01 7.32 3.02 8 2 C8 3.98 8 5.96 8 8 C6.02 8.99 6.02 8.99 4 10 C3.731875 9.360625 3.46375 8.72125 3.1875 8.0625 C2.11332248 5.66868314 2.11332248 5.66868314 -1 5 C-0.67 3.35 -0.34 1.7 0 0 Z " fill="#200A39" transform="translate(808,196)"/>
<path d="M0 0 C1.2065625 0.0309375 1.2065625 0.0309375 2.4375 0.0625 C2.4375 1.0525 2.4375 2.0425 2.4375 3.0625 C1.4475 3.7225 0.4575 4.3825 -0.5625 5.0625 C-0.5625 6.0525 -0.5625 7.0425 -0.5625 8.0625 C-2.2125 8.0625 -3.8625 8.0625 -5.5625 8.0625 C-5.8925 7.4025 -6.2225 6.7425 -6.5625 6.0625 C-3.35333785 0.08178873 -3.35333785 0.08178873 0 0 Z " fill="#673A79" transform="translate(279.5625,349.9375)"/>
<path d="M0 0 C1.65 0 3.3 0 5 0 C4.01 0.33 3.02 0.66 2 1 C1.6278958 2.32303717 1.29369827 3.65737935 1 5 C0.01 5.495 0.01 5.495 -1 6 C-1.69227032 8.80980673 -1.69227032 8.80980673 -2.125 12.0625 C-2.29257812 13.16722656 -2.46015625 14.27195313 -2.6328125 15.41015625 C-2.75398438 16.26480469 -2.87515625 17.11945313 -3 18 C-3.33 18 -3.66 18 -4 18 C-4 13.38 -4 8.76 -4 4 C-3.34 4 -2.68 4 -2 4 C-2 3.34 -2 2.68 -2 2 C-1.34 2 -0.68 2 0 2 C0 1.34 0 0.68 0 0 Z " fill="#3651A6" transform="translate(468,148)"/>
<path d="M0 0 C2.31 0 4.62 0 7 0 C7.33 1.98 7.66 3.96 8 6 C5.69 6 3.38 6 1 6 C1.33 5.01 1.66 4.02 2 3 C1.34 3 0.68 3 0 3 C0 2.01 0 1.02 0 0 Z " fill="#6B488D" transform="translate(633,250)"/>
<path d="M0 0 C1.98 0 3.96 0 6 0 C7.90608098 3.21182149 8.22266247 5.53882603 8.125 9.25 C8.10695313 10.14203125 8.08890625 11.0340625 8.0703125 11.953125 C8.03550781 12.96632812 8.03550781 12.96632812 8 14 C7.01 14.495 7.01 14.495 6 15 C6 11.37 6 7.74 6 4 C4.68 4 3.36 4 2 4 C2 3.34 2 2.68 2 2 C1.34 2 0.68 2 0 2 C0 1.34 0 0.68 0 0 Z " fill="#421F9F" transform="translate(268,204)"/>
<path d="M0 0 C2.31 0.33 4.62 0.66 7 1 C6.34 3.31 5.68 5.62 5 8 C3.35 7.67 1.7 7.34 0 7 C0 4.69 0 2.38 0 0 Z " fill="#6369A1" transform="translate(778,65)"/>
<path d="M0 0 C1.98 0.66 3.96 1.32 6 2 C5.3125 3.9375 5.3125 3.9375 4 6 C1.375 6.75 1.375 6.75 -1 7 C-1 6.34 -1 5.68 -1 5 C-1.66 4.67 -2.32 4.34 -3 4 C-2.01 2.68 -1.02 1.36 0 0 Z " fill="#6A8BC1" transform="translate(617,47)"/>
<path d="M0 0 C2.625 -0.1875 2.625 -0.1875 5 0 C4.67 2.64 4.34 5.28 4 8 C2.35 7.67 0.7 7.34 -1 7 C-1.625 5.1875 -1.625 5.1875 -2 3 C-1.34 2.01 -0.68 1.02 0 0 Z " fill="#4077C1" transform="translate(596,0)"/>
<path d="M0 0 C2.97 0.495 2.97 0.495 6 1 C6.33 1.99 6.66 2.98 7 4 C5.75 5.5 5.75 5.5 4 7 C2.68 7 1.36 7 0 7 C-1.04449911 3.86650268 -0.93423645 3.01031744 0 0 Z " fill="#6A2A7F" transform="translate(434,303)"/>
<path d="M0 0 C-0.928125 0.433125 -1.85625 0.86625 -2.8125 1.3125 C-5.51745934 2.7445373 -6.9541611 3.85186916 -9 6 C-9.66 6 -10.32 6 -11 6 C-11.33 5.34 -11.66 4.68 -12 4 C-12.99 4 -13.98 4 -15 4 C-15 3.01 -15 2.02 -15 1 C-14.06027344 0.90912109 -14.06027344 0.90912109 -13.1015625 0.81640625 C-11.87566406 0.69072266 -11.87566406 0.69072266 -10.625 0.5625 C-9.81289063 0.48128906 -9.00078125 0.40007813 -8.1640625 0.31640625 C-1.96601942 -0.58980583 -1.96601942 -0.58980583 0 0 Z " fill="#2055B4" transform="translate(643,43)"/>
<path d="M0 0 C0.66 0.33 1.32 0.66 2 1 C1.34 1.66 0.68 2.32 0 3 C0.32326553 6.59679066 0.32326553 6.59679066 1 10 C3.31 10.66 5.62 11.32 8 12 C8 12.33 8 12.66 8 13 C6.741875 13.04125 5.48375 13.0825 4.1875 13.125 C3.47980469 13.14820313 2.77210938 13.17140625 2.04296875 13.1953125 C0 13 0 13 -3 11 C-3.3984375 8.90625 -3.3984375 8.90625 -3.375 6.5 C-3.38273437 5.7059375 -3.39046875 4.911875 -3.3984375 4.09375 C-3.26695312 3.4028125 -3.13546875 2.711875 -3 2 C-2.01 1.34 -1.02 0.68 0 0 Z " fill="#7198CE" transform="translate(472,155)"/>
<path d="M0 0 C0.33 0.99 0.66 1.98 1 3 C2.65 3.33 4.3 3.66 6 4 C6 6.64 6 9.28 6 12 C4.35 12.33 2.7 12.66 1 13 C1.66 12.34 2.32 11.68 3 11 C3.6425235 8.93125966 3.6425235 8.93125966 4 7 C2.68 6.67 1.36 6.34 0 6 C0 4.02 0 2.04 0 0 Z " fill="#3E1D61" transform="translate(912,49)"/>
<path d="M0 0 C0.66 0 1.32 0 2 0 C3.31540172 5.85951675 3.03119782 8.94800363 0 14 C-2.6875 14.9375 -2.6875 14.9375 -5 15 C-5 14.34 -5 13.68 -5 13 C-3.35 12.34 -1.7 11.68 0 11 C0 7.37 0 3.74 0 0 Z " fill="#5068B6" transform="translate(488,154)"/>
<path d="M0 0 C2.625 1.4375 2.625 1.4375 5 3 C4.34 4.65 3.68 6.3 3 8 C0.525 7.01 0.525 7.01 -2 6 C-2 4.35 -2 2.7 -2 1 C-1.34 0.67 -0.68 0.34 0 0 Z " fill="#4873B6" transform="translate(600,42)"/>
<path d="M0 0 C1.4540625 0.0309375 1.4540625 0.0309375 2.9375 0.0625 C2.9375 1.7125 2.9375 3.3625 2.9375 5.0625 C0.9575 5.7225 -1.0225 6.3825 -3.0625 7.0625 C-3.44383299 5.0710944 -3.77575582 3.06970923 -4.0625 1.0625 C-3.0625 0.0625 -3.0625 0.0625 0 0 Z " fill="#43528A" transform="translate(165.0625,19.9375)"/>
<path d="M0 0 C0.99 0.33 1.98 0.66 3 1 C3.12375 1.804375 3.2475 2.60875 3.375 3.4375 C3.684375 4.7059375 3.684375 4.7059375 4 6 C4.66 6.33 5.32 6.66 6 7 C5.01 8.485 5.01 8.485 4 10 C2.68 10 1.36 10 0 10 C0 9.01 0 8.02 0 7 C0.99 7 1.98 7 3 7 C3 6.01 3 5.02 3 4 C2.01 4 1.02 4 0 4 C-0.33 4.66 -0.66 5.32 -1 6 C-1.33 4.68 -1.66 3.36 -2 2 C-1.34 2 -0.68 2 0 2 C0 1.34 0 0.68 0 0 Z " fill="#250B40" transform="translate(720,250)"/>
<path d="M0 0 C2.31 0.33 4.62 0.66 7 1 C6.67 2.32 6.34 3.64 6 5 C4.02 5.33 2.04 5.66 0 6 C0 4.02 0 2.04 0 0 Z " fill="#7861A1" transform="translate(820,104)"/>
<path d="M0 0 C1.32 0 2.64 0 4 0 C4 1.98 4 3.96 4 6 C2.02 6.99 2.02 6.99 0 8 C0 7.34 0 6.68 0 6 C-0.66 6 -1.32 6 -2 6 C-2 4.68 -2 3.36 -2 2 C-1.34 2 -0.68 2 0 2 C0 1.34 0 0.68 0 0 Z " fill="#86A6C9" transform="translate(526,90)"/>
<path d="M0 0 C1.32 0 2.64 0 4 0 C4 0.66 4 1.32 4 2 C3.01 2.33 2.02 2.66 1 3 C1 3.99 1 4.98 1 6 C2.32 6 3.64 6 5 6 C4.67 7.32 4.34 8.64 4 10 C1.69 9.34 -0.62 8.68 -3 8 C-2.67 6.02 -2.34 4.04 -2 2 C-1.34 2 -0.68 2 0 2 C0 1.34 0 0.68 0 0 Z " fill="#110E51" transform="translate(63,92)"/>
<path d="M0 0 C0.66 0.33 1.32 0.66 2 1 C0.34368027 3.28457894 -0.6315599 4.558779 -3 6 C-7.29329615 6.58151274 -12.05061818 6.97469091 -16 5 C-15.67 4.34 -15.34 3.68 -15 3 C-13.75283203 3.05220703 -13.75283203 3.05220703 -12.48046875 3.10546875 C-11.39378906 3.13253906 -10.30710937 3.15960938 -9.1875 3.1875 C-8.10855469 3.22230469 -7.02960937 3.25710937 -5.91796875 3.29296875 C-2.98051156 3.26536952 -2.98051156 3.26536952 -1.11328125 1.48828125 C-0.74589844 0.99714844 -0.37851562 0.50601563 0 0 Z " fill="#3270CE" transform="translate(651,63)"/>
<path d="M0 0 C0.66 0 1.32 0 2 0 C2.04241723 2.33294775 2.04092937 4.66702567 2 7 C1 8 1 8 -2.0625 8.0625 C-3.031875 8.041875 -4.00125 8.02125 -5 8 C-4.67 6.35 -4.34 4.7 -4 3 C-2.68 2.67 -1.36 2.34 0 2 C0 1.34 0 0.68 0 0 Z " fill="#779BC4" transform="translate(353,0)"/>
<path d="M0 0 C1.875 0.3125 1.875 0.3125 4 1 C6 4 6 4 5.625 6.1875 C5.41875 6.785625 5.2125 7.38375 5 8 C3.35 7.67 1.7 7.34 0 7 C0 4.69 0 2.38 0 0 Z " fill="#9C64AA" transform="translate(524,336)"/>
<path d="M0 0 C0 0.66 0 1.32 0 2 C-0.66 2 -1.32 2 -2 2 C-1.67 2.99 -1.34 3.98 -1 5 C-0.01 5.33 0.98 5.66 2 6 C1.67 4.35 1.34 2.7 1 1 C1.66 1 2.32 1 3 1 C3.66 3.31 4.32 5.62 5 8 C2.36 8 -0.28 8 -3 8 C-3.33 5.69 -3.66 3.38 -4 1 C-2 0 -2 0 0 0 Z " fill="#260D3A" transform="translate(884,263)"/>
<path d="M0 0 C2.475 0.495 2.475 0.495 5 1 C4.67 3.31 4.34 5.62 4 8 C2.68 8 1.36 8 0 8 C0 5.36 0 2.72 0 0 Z " fill="#58467D" transform="translate(426,232)"/>
<path d="M0 0 C1.32 0 2.64 0 4 0 C4.33 2.31 4.66 4.62 5 7 C4.01 7.33 3.02 7.66 2 8 C1.34 7.67 0.68 7.34 0 7 C0 4.69 0 2.38 0 0 Z " fill="#7E9CBF" transform="translate(384,74)"/>
<path d="M0 0 C0.99 0 1.98 0 3 0 C3 1.32 3 2.64 3 4 C1.68 4 0.36 4 -1 4 C-1.33 4.99 -1.66 5.98 -2 7 C-3.32 6.67 -4.64 6.34 -6 6 C-6 5.01 -6 4.02 -6 3 C-5.195625 2.690625 -4.39125 2.38125 -3.5625 2.0625 C-1.10919595 1.23664655 -1.10919595 1.23664655 0 0 Z " fill="#C4D1E7" transform="translate(716,64)"/>
<path d="M0 0 C4.49652778 -0.36458333 4.49652778 -0.36458333 6.8125 1.3125 C8 3 8 3 8 6 C7.34 6 6.68 6 6 6 C6 5.01 6 4.02 6 3 C5.01 3 4.02 3 3 3 C2.67 4.32 2.34 5.64 2 7 C1.34 6.67 0.68 6.34 0 6 C0 4.02 0 2.04 0 0 Z " fill="#2B0E3E" transform="translate(860,218)"/>
<path d="M0 0 C0.66 0 1.32 0 2 0 C2 0.66 2 1.32 2 2 C5.96 1.34 9.92 0.68 14 0 C14 0.66 14 1.32 14 2 C13.34 2 12.68 2 12 2 C12 2.66 12 3.32 12 4 C8.04 4 4.08 4 0 4 C0 2.68 0 1.36 0 0 Z " fill="#280D80" transform="translate(224,194)"/>
<path d="M0 0 C1.65 0 3.3 0 5 0 C5 1.65 5 3.3 5 5 C3.35 5.33 1.7 5.66 0 6 C-0.33 6.99 -0.66 7.98 -1 9 C-2.0326802 6.21176345 -2.04509293 5.1322726 -1.0625 2.25 C-0.711875 1.5075 -0.36125 0.765 0 0 Z " fill="#8F91B5" transform="translate(650,176)"/>
<path d="M0 0 C2.475 0.495 2.475 0.495 5 1 C5.625 2.8125 5.625 2.8125 6 5 C5.01 6.485 5.01 6.485 4 8 C3.34 8 2.68 8 2 8 C2 7.34 2 6.68 2 6 C1.34 6 0.68 6 0 6 C0 4.02 0 2.04 0 0 Z " fill="#758BB2" transform="translate(322,62)"/>
<path d="M0 0 C1.32 0.33 2.64 0.66 4 1 C3.67 1.99 3.34 2.98 3 4 C3.99 4 4.98 4 6 4 C5.67 2.68 5.34 1.36 5 0 C6.32 0.33 7.64 0.66 9 1 C8.3125 3.4375 8.3125 3.4375 7 6 C4.375 6.8125 4.375 6.8125 2 7 C1.67 5.68 1.34 4.36 1 3 C0.01 3.33 -0.98 3.66 -2 4 C-2 3.34 -2 2.68 -2 2 C-1.34 2 -0.68 2 0 2 C0 1.34 0 0.68 0 0 Z " fill="#210938" transform="translate(855,176)"/>
<path d="M0 0 C2.31 0 4.62 0 7 0 C7.66 1.65 8.32 3.3 9 5 C8.34 5 7.68 5 7 5 C6.67 5.99 6.34 6.98 6 8 C5 5 5 5 5 2 C4.01 1.67 3.02 1.34 2 1 C2.33 2.65 2.66 4.3 3 6 C2.01 6 1.02 6 0 6 C0 4.02 0 2.04 0 0 Z " fill="#260D39" transform="translate(896,176)"/>
<path d="M0 0 C1.65 0 3.3 0 5 0 C5.66 1.32 6.32 2.64 7 4 C6.34 4.66 5.68 5.32 5 6 C3.68 6 2.36 6 1 6 C-0.0625 4.125 -0.0625 4.125 -1 2 C-0.67 1.34 -0.34 0.68 0 0 Z " fill="#737DAD" transform="translate(631,146)"/>
<path d="M0 0 C0.86625 0.556875 0.86625 0.556875 1.75 1.125 C1.42 2.115 1.09 3.105 0.75 4.125 C-1.23 4.455 -3.21 4.785 -5.25 5.125 C-5.58 3.805 -5.91 2.485 -6.25 1.125 C-2.80384615 -1.09038462 -2.80384615 -1.09038462 0 0 Z " fill="#7573A6" transform="translate(69.25,93.875)"/>
<path d="M0 0 C1.98 0 3.96 0 6 0 C5.67 1.65 5.34 3.3 5 5 C3.35 5.33 1.7 5.66 0 6 C0 4.02 0 2.04 0 0 Z " fill="#667EB0" transform="translate(688,88)"/>
<path d="M0 0 C0.66 0.66 1.32 1.32 2 2 C-0.52788007 4.79872437 -2.20411134 6.45773019 -6 7 C-6 6.34 -6 5.68 -6 5 C-6.66 4.67 -7.32 4.34 -8 4 C-7.67 3.34 -7.34 2.68 -7 2 C-4.6859378 1.26924352 -2.35171131 0.59861742 0 0 Z " fill="#4E60A6" transform="translate(737,73)"/>
<path d="M0 0 C1.65 0 3.3 0 5 0 C6.125 3.75 6.125 3.75 5 6 C3.35 6 1.7 6 0 6 C0 4.02 0 2.04 0 0 Z " fill="#3466BA" transform="translate(622,28)"/>
<path d="M0 0 C1.65 0 3.3 0 5 0 C5.33 1.32 5.66 2.64 6 4 C3 6 3 6 -1 6 C-0.67 4.02 -0.34 2.04 0 0 Z " fill="#387DCE" transform="translate(541,14)"/>
<path d="M0 0 C3.465 1.98 3.465 1.98 7 4 C6.01 4.495 6.01 4.495 5 5 C4.34786708 7.02463255 4.34786708 7.02463255 4 9 C3.01 8.67 2.02 8.34 1 8 C1.66 8 2.32 8 3 8 C3 7.01 3 6.02 3 5 C1.68 5.33 0.36 5.66 -1 6 C-0.67 4.02 -0.34 2.04 0 0 Z " fill="#211B71" transform="translate(81,6)"/>
<path d="M0 0 C1.65 0.33 3.3 0.66 5 1 C4.67 2.65 4.34 4.3 4 6 C2.35 5.67 0.7 5.34 -1 5 C-0.67 3.35 -0.34 1.7 0 0 Z " fill="#E4D2E7" transform="translate(573,356)"/>
<path d="M0 0 C3.62997809 1.2099927 4.33275681 2.66551361 6 6 C2.71303767 6.79953138 1.28976808 7.09658936 -2 6 C-1.125 1.125 -1.125 1.125 0 0 Z " fill="#9B8EB8" transform="translate(834,70)"/>
<path d="M0 0 C1.65 0 3.3 0 5 0 C5.625 1.875 5.625 1.875 6 4 C5.34 4.66 4.68 5.32 4 6 C2.68 6 1.36 6 0 6 C0 4.02 0 2.04 0 0 Z " fill="#9329A8" transform="translate(352,356)"/>
<path d="M0 0 C1.4540625 0.0309375 1.4540625 0.0309375 2.9375 0.0625 C2.6075 1.0525 2.2775 2.0425 1.9375 3.0625 C0.9475 3.0625 -0.0425 3.0625 -1.0625 3.0625 C-1.0625 4.7125 -1.0625 6.3625 -1.0625 8.0625 C-1.7225 8.0625 -2.3825 8.0625 -3.0625 8.0625 C-3.0625 7.4025 -3.0625 6.7425 -3.0625 6.0625 C-3.7225 6.0625 -4.3825 6.0625 -5.0625 6.0625 C-3.98897059 0.08140756 -3.98897059 0.08140756 0 0 Z " fill="#27093C" transform="translate(741.0625,295.9375)"/>
<path d="M0 0 C0.99 0.33 1.98 0.66 3 1 C3 1.99 3 2.98 3 4 C3.99 4 4.98 4 6 4 C6.33 2.68 6.66 1.36 7 0 C7.66 0.33 8.32 0.66 9 1 C8.6875 3.375 8.6875 3.375 8 6 C7.01 6.66 6.02 7.32 5 8 C5 7.34 5 6.68 5 6 C3.35 6 1.7 6 0 6 C0 4.02 0 2.04 0 0 Z " fill="#3A0E54" transform="translate(388,280)"/>
<path d="M0 0 C1.32 0 2.64 0 4 0 C4.33 1.65 4.66 3.3 5 5 C3.35 5.33 1.7 5.66 0 6 C-0.38218767 4.34385343 -0.71395102 2.67542976 -1 1 C-0.67 0.67 -0.34 0.34 0 0 Z " fill="#F4D6F6" transform="translate(263,210)"/>
<path d="M0 0 C0.99 0 1.98 0 3 0 C3 0.66 3 1.32 3 2 C3.66 2 4.32 2 5 2 C5 3.65 5 5.3 5 7 C3.02 7.33 1.04 7.66 -1 8 C-0.67 7.01 -0.34 6.02 0 5 C0.99 5.33 1.98 5.66 3 6 C3 5.01 3 4.02 3 3 C1.68 3.33 0.36 3.66 -1 4 C-0.67 2.68 -0.34 1.36 0 0 Z " fill="#210733" transform="translate(873,194)"/>
<path d="M0 0 C0.99 0.33 1.98 0.66 3 1 C2.6875 2.875 2.6875 2.875 2 5 C-1 7 -1 7 -4 7 C-4 5.68 -4 4.36 -4 3 C-2.1875 1.1875 -2.1875 1.1875 0 0 Z " fill="#A2A1C6" transform="translate(68,137)"/>
<path d="M0 0 C0.33 0.99 0.66 1.98 1 3 C3.50447516 4.21869929 3.50447516 4.21869929 6 5 C4.625 7 4.625 7 3 9 C2.34 9 1.68 9 1 9 C1 8.01 1 7.02 1 6 C0.34 6 -0.32 6 -1 6 C-1.042721 4.33388095 -1.04063832 2.66617115 -1 1 C-0.67 0.67 -0.34 0.34 0 0 Z " fill="#2D53A7" transform="translate(657,61)"/>
<path d="M0 0 C0.33 0.66 0.66 1.32 1 2 C1.66 2 2.32 2 3 2 C3.33 1.34 3.66 0.68 4 0 C4 0.99 4 1.98 4 3 C4.66 3 5.32 3 6 3 C6.33 4.65 6.66 6.3 7 8 C6.01 8.33 5.02 8.66 4 9 C3.34 7.35 2.68 5.7 2 4 C2 4.66 2 5.32 2 6 C1.34 6 0.68 6 0 6 C0 4.02 0 2.04 0 0 Z " fill="#180635" transform="translate(158,338)"/>
<path d="M0 0 C2.3125 -0.3125 2.3125 -0.3125 5 0 C6.8125 2.5 6.8125 2.5 8 5 C5.69 5 3.38 5 1 5 C0.67 3.35 0.34 1.7 0 0 Z " fill="#3D3F69" transform="translate(48,320)"/>
<path d="M0 0 C2.97 0.495 2.97 0.495 6 1 C4.84826645 3.46800047 3.95216435 5.04783565 2 7 C2 6.34 2 5.68 2 5 C1.01 5 0.02 5 -1 5 C-0.67 3.35 -0.34 1.7 0 0 Z " fill="#999FC6" transform="translate(687,127)"/>
<path d="M0 0 C0.598125 0.20625 1.19625 0.4125 1.8125 0.625 C1.8125 1.615 1.8125 2.605 1.8125 3.625 C0.4925 3.625 -0.8275 3.625 -2.1875 3.625 C-2.1875 4.285 -2.1875 4.945 -2.1875 5.625 C-3.5075 5.295 -4.8275 4.965 -6.1875 4.625 C-5.03076352 1.15479057 -3.91311293 -0.67081936 0 0 Z " fill="#A3A5C3" transform="translate(145.1875,80.375)"/>
<path d="M0 0 C1.65 0 3.3 0 5 0 C5.625 1.875 5.625 1.875 6 4 C5.34 4.66 4.68 5.32 4 6 C2.68 6 1.36 6 0 6 C0 4.02 0 2.04 0 0 Z " fill="#648AB5" transform="translate(406,74)"/>
<path d="M0 0 C1.22589844 0.15275391 1.22589844 0.15275391 2.4765625 0.30859375 C3.41628906 0.43427734 3.41628906 0.43427734 4.375 0.5625 C5.035 2.2125 5.695 3.8625 6.375 5.5625 C5.715 5.5625 5.055 5.5625 4.375 5.5625 C3.715 4.5725 3.055 3.5825 2.375 2.5625 C-1.16172026 2.25495911 -4.23545199 2.51956215 -7.625 3.5625 C-7.295 2.5725 -6.965 1.5825 -6.625 0.5625 C-4.10446405 -0.69776798 -2.7707902 -0.35624445 0 0 Z " fill="#388FDA" transform="translate(644.625,49.4375)"/>
<path d="M0 0 C1.65 0.33 3.3 0.66 5 1 C5 4 5 4 4 6 C2.68 6 1.36 6 0 6 C-1.125 2.25 -1.125 2.25 0 0 Z " fill="#4D72A4" transform="translate(332,38)"/>
<path d="M0 0 C1.65 0 3.3 0 5 0 C5 2 5 4 5 6 C3.02 6 1.04 6 -1 6 C-0.67 4.02 -0.34 2.04 0 0 Z " fill="#7C7597" transform="translate(90,358)"/>
<path d="M0 0 C1.32 0 2.64 0 4 0 C5.125 3.75 5.125 3.75 4 6 C2.68 6 1.36 6 0 6 C-0.66 4.68 -1.32 3.36 -2 2 C-1.34 2 -0.68 2 0 2 C0 1.34 0 0.68 0 0 Z " fill="#613B7C" transform="translate(390,266)"/>
<path d="M0 0 C0.99 0 1.98 0 3 0 C2.67 1.98 2.34 3.96 2 6 C4.31 6.33 6.62 6.66 9 7 C9 7.66 9 8.32 9 9 C6.1875 9.25 6.1875 9.25 3 9 C0.532661 6.7793949 0.03847554 5.56430797 -0.1875 2.25 C-0.125625 1.5075 -0.06375 0.765 0 0 Z " fill="#A8C4E0" transform="translate(471,158)"/>
<path d="M0 0 C0.99 0.33 1.98 0.66 3 1 C3 1.99 3 2.98 3 4 C3.99 4.66 4.98 5.32 6 6 C5.67 6.99 5.34 7.98 5 9 C4.01 9 3.02 9 2 9 C2 8.34 2 7.68 2 7 C1.34 7 0.68 7 0 7 C0 4.69 0 2.38 0 0 Z " fill="#1A0F4F" transform="translate(114,112)"/>
<path d="M0 0 C-0.33 0.99 -0.66 1.98 -1 3 C-3.31 3.33 -5.62 3.66 -8 4 C-8 2.68 -8 1.36 -8 0 C-4.94736336 -0.98120464 -3.05263664 -0.98120464 0 0 Z " fill="#D6E6F5" transform="translate(675,90)"/>
<path d="M0 0 C1.65 0 3.3 0 5 0 C5 1.98 5 3.96 5 6 C3.68 6 2.36 6 1 6 C1 5.34 1 4.68 1 4 C0.34 3.67 -0.32 3.34 -1 3 C-0.67 2.01 -0.34 1.02 0 0 Z " fill="#5D92C9" transform="translate(543,26)"/>
<path d="M0 0 C0 0.99 0 1.98 0 3 C-2.31 3.66 -4.62 4.32 -7 5 C-7.33 3.68 -7.66 2.36 -8 1 C-3.375 -1.125 -3.375 -1.125 0 0 Z " fill="#C379D0" transform="translate(379,356)"/>
<path d="M0 0 C-0.25 2.375 -0.25 2.375 -1 5 C-3.0625 6.3125 -3.0625 6.3125 -5 7 C-5.33 6.01 -5.66 5.02 -6 4 C-4.68 4 -3.36 4 -2 4 C-2.33 3.34 -2.66 2.68 -3 2 C-4.65 2.33 -6.3 2.66 -8 3 C-8 2.34 -8 1.68 -8 1 C-5.29120665 -0.35439668 -2.99066732 -0.06501451 0 0 Z " fill="#270938" transform="translate(872,242)"/>
<path d="M0 0 C2.31 0 4.62 0 7 0 C7.66 1.32 8.32 2.64 9 4 C8.01 4.33 7.02 4.66 6 5 C5.67 4.01 5.34 3.02 5 2 C4.34 2 3.68 2 3 2 C3 3.32 3 4.64 3 6 C2.01 6 1.02 6 0 6 C0 4.02 0 2.04 0 0 Z " fill="#250D61" transform="translate(156,178)"/>
<path d="M0 0 C0.66 0 1.32 0 2 0 C2 2.97 2 5.94 2 9 C0.68 9.33 -0.64 9.66 -2 10 C-1.33333333 6.66666667 -0.66666667 3.33333333 0 0 Z " fill="#4AA3E2" transform="translate(649,55)"/>
<path d="M0 0 C0.99 0.33 1.98 0.66 3 1 C3 1.66 3 2.32 3 3 C4.65 2.67 6.3 2.34 8 2 C7.01 2.495 7.01 2.495 6 3 C5.67 3.99 5.34 4.98 5 6 C4.01 6.33 3.02 6.66 2 7 C2 6.01 2 5.02 2 4 C1.01 3.67 0.02 3.34 -1 3 C-0.67 2.01 -0.34 1.02 0 0 Z " fill="#4E83CF" transform="translate(629,46)"/>
<path d="M0 0 C3.3 0 6.6 0 10 0 C9.67 0.99 9.34 1.98 9 3 C8.06027344 2.98259766 8.06027344 2.98259766 7.1015625 2.96484375 C5.87566406 2.95130859 5.87566406 2.95130859 4.625 2.9375 C3.40683594 2.92009766 3.40683594 2.92009766 2.1640625 2.90234375 C-0.04937142 2.85533666 -0.04937142 2.85533666 -2 4 C-1.34 2.68 -0.68 1.36 0 0 Z " fill="#2460C7" transform="translate(638,44)"/>
<path d="M0 0 C2.475 0.495 2.475 0.495 5 1 C4.67 2.65 4.34 4.3 4 6 C2.68 6 1.36 6 0 6 C0 4.02 0 2.04 0 0 Z " fill="#649BC9" transform="translate(428,14)"/>
<path d="M0 0 C2.475 0.495 2.475 0.495 5 1 C5 2.32 5 3.64 5 5 C4.34 5 3.68 5 3 5 C2.67 5.66 2.34 6.32 2 7 C1.34 6.67 0.68 6.34 0 6 C0 4.02 0 2.04 0 0 Z " fill="#516DAB" transform="translate(694,18)"/>
<path d="M0 0 C2 0.66666667 4 1.33333333 6 2 C5.34 3.65 4.68 5.3 4 7 C2.68 6.67 1.36 6.34 0 6 C0 4.02 0 2.04 0 0 Z " fill="#3058A7" transform="translate(672,16)"/>
<path d="M0 0 C1.32 0 2.64 0 4 0 C4.33 1.65 4.66 3.3 5 5 C3.35 5.33 1.7 5.66 0 6 C0 4.02 0 2.04 0 0 Z " fill="#631C6E" transform="translate(408,354)"/>
<path d="M0 0 C0.33 0.66 0.66 1.32 1 2 C1.99 2 2.98 2 4 2 C4 1.34 4 0.68 4 0 C5.32 0 6.64 0 8 0 C8 0.66 8 1.32 8 2 C4.63316085 4.43160605 3.26649636 5 -1 5 C-0.67 3.35 -0.34 1.7 0 0 Z " fill="#2A0539" transform="translate(885,203)"/>
<path d="M0 0 C0 0.66 0 1.32 0 2 C-0.886875 2.268125 -1.77375 2.53625 -2.6875 2.8125 C-5.76877548 3.91710819 -8.26221405 5.22849144 -11 7 C-8.87296567 0.78251503 -6.45381515 -0.28683623 0 0 Z " fill="#4F75C2" transform="translate(481,150)"/>
<path d="M0 0 C2.475 0.495 2.475 0.495 5 1 C4.01 1.33 3.02 1.66 2 2 C2 2.99 2 3.98 2 5 C2.99 5 3.98 5 5 5 C5 4.34 5 3.68 5 3 C5.66 3 6.32 3 7 3 C6.34 4.32 5.68 5.64 5 7 C3.35 7 1.7 7 0 7 C0 4.69 0 2.38 0 0 Z " fill="#0E0E3E" transform="translate(46,91)"/>
<path d="M0 0 C1.32 0 2.64 0 4 0 C4 0.66 4 1.32 4 2 C5.65 2 7.3 2 9 2 C8.67 2.66 8.34 3.32 8 4 C2.55072464 5.27536232 2.55072464 5.27536232 0 4 C0 2.68 0 1.36 0 0 Z " fill="#710988" transform="translate(386,346)"/>
<path d="M0 0 C-0.3125 1.9375 -0.3125 1.9375 -1 4 C-1.99 4.33 -2.98 4.66 -4 5 C-4.66 4.67 -5.32 4.34 -6 4 C-6 2.68 -6 1.36 -6 0 C-3.50907189 -1.24546405 -2.58919267 -0.7767578 0 0 Z " fill="#8A6FA9" transform="translate(634,232)"/>
<path d="M0 0 C1.65 0 3.3 0 5 0 C5 0.66 5 1.32 5 2 C5.66 2 6.32 2 7 2 C7 2.66 7 3.32 7 4 C5.35 3.67 3.7 3.34 2 3 C2 4.32 2 5.64 2 7 C1.01 6.67 0.02 6.34 -1 6 C-0.67 4.02 -0.34 2.04 0 0 Z " fill="#251342" transform="translate(754,208)"/>
<path d="M0 0 C2.97 0.495 2.97 0.495 6 1 C5.67 2.32 5.34 3.64 5 5 C3.35 4.67 1.7 4.34 0 4 C0 2.68 0 1.36 0 0 Z " fill="#4F87CE" transform="translate(542,44)"/>
<path d="M0 0 C1.98 0 3.96 0 6 0 C5.67 1.32 5.34 2.64 5 4 C3.35 4.33 1.7 4.66 0 5 C0 3.35 0 1.7 0 0 Z " fill="#5793D2" transform="translate(480,32)"/>
<path d="M0 0 C2.475 0.495 2.475 0.495 5 1 C5.33 2.65 5.66 4.3 6 6 C4.35 5.67 2.7 5.34 1 5 C0.67 3.35 0.34 1.7 0 0 Z " fill="#527FC3" transform="translate(634,4)"/>
<path d="M0 0 C2.625 0.9375 2.625 0.9375 5 2 C4.01 3.485 4.01 3.485 3 5 C0.375 5.1875 0.375 5.1875 -2 5 C-2 3.68 -2 2.36 -2 1 C-1.34 0.67 -0.68 0.34 0 0 Z " fill="#2E63BB" transform="translate(620,3)"/>
<path d="M0 0 C0.66 0 1.32 0 2 0 C2.33 0.66 2.66 1.32 3 2 C3.66 2 4.32 2 5 2 C5.66 1.34 6.32 0.68 7 0 C7.33 1.32 7.66 2.64 8 4 C6.02 4.66 4.04 5.32 2 6 C2 5.34 2 4.68 2 4 C1.34 4 0.68 4 0 4 C0 2.68 0 1.36 0 0 Z " fill="#210739" transform="translate(764,246)"/>
<path d="M0 0 C1.32 0 2.64 0 4 0 C4 1.98 4 3.96 4 6 C3.01 6.495 3.01 6.495 2 7 C1.34 6.67 0.68 6.34 0 6 C0 4.02 0 2.04 0 0 Z " fill="#5E498A" transform="translate(672,208)"/>
<path d="M0 0 C1.65 0 3.3 0 5 0 C5 1.65 5 3.3 5 5 C3.35 5 1.7 5 0 5 C0 3.35 0 1.7 0 0 Z " fill="#E1F9FB" transform="translate(641,56)"/>
<path d="M0 0 C-0.66 1.32 -1.32 2.64 -2 4 C-2.99 4 -3.98 4 -5 4 C-5 3.34 -5 2.68 -5 2 C-5.66 2 -6.32 2 -7 2 C-7 1.34 -7 0.68 -7 0 C-4.3333581 -1.33332095 -2.83319697 -0.67102033 0 0 Z " fill="#3555A0" transform="translate(711,39)"/>
<path d="M0 0 C0.66 0 1.32 0 2 0 C2 0.66 2 1.32 2 2 C2.99 2.33 3.98 2.66 5 3 C4.67 3.99 4.34 4.98 4 6 C2.68 6 1.36 6 0 6 C0 5.34 0 4.68 0 4 C-0.66 4 -1.32 4 -2 4 C-2 3.34 -2 2.68 -2 2 C-1.34 2 -0.68 2 0 2 C0 1.34 0 0.68 0 0 Z " fill="#6A9CCE" transform="translate(500,26)"/>
<path d="M0 0 C0.33 0.99 0.66 1.98 1 3 C2.32 2.01 3.64 1.02 5 0 C5.33 1.32 5.66 2.64 6 4 C3.36 4.66 0.72 5.32 -2 6 C-1.125 1.125 -1.125 1.125 0 0 Z " fill="#1C1769" transform="translate(62,24)"/>
<path d="M0 0 C1.65 0 3.3 0 5 0 C5.33 0.99 5.66 1.98 6 3 C5.195625 3.12375 4.39125 3.2475 3.5625 3.375 C2.2940625 3.684375 2.2940625 3.684375 1 4 C0.67 4.66 0.34 5.32 0 6 C-0.66 6 -1.32 6 -2 6 C-2 4.68 -2 3.36 -2 2 C-1.34 2 -0.68 2 0 2 C0 1.34 0 0.68 0 0 Z " fill="#25538E" transform="translate(348,0)"/>
<path d="M0 0 C0.66 0.99 1.32 1.98 2 3 C2.99 3.66 3.98 4.32 5 5 C2 7 2 7 -1 7 C-0.67 7.99 -0.34 8.98 0 10 C-0.66 10 -1.32 10 -2 10 C-2 8.68 -2 7.36 -2 6 C-1.34 6 -0.68 6 0 6 C0 5.01 0 4.02 0 3 C-0.66 2.67 -1.32 2.34 -2 2 C-1.34 2 -0.68 2 0 2 C0 1.34 0 0.68 0 0 Z " fill="#490D5F" transform="translate(354,318)"/>
<path d="M0 0 C2.375 -0.1875 2.375 -0.1875 5 0 C5.66 0.99 6.32 1.98 7 3 C6 4 6 4 2.9375 4.0625 C1.4834375 4.0315625 1.4834375 4.0315625 0 4 C0 2.68 0 1.36 0 0 Z " fill="#734C95" transform="translate(614,254)"/>
<path d="M0 0 C0.33 0 0.66 0 1 0 C1.33 2.64 1.66 5.28 2 8 C3.98 8 5.96 8 8 8 C7.67 8.66 7.34 9.32 7 10 C5.00045254 10.04254356 2.99958364 10.04080783 1 10 C0 9 0 9 -0.09765625 6.93359375 C-0.08605469 6.10988281 -0.07445312 5.28617188 -0.0625 4.4375 C-0.05347656 3.61121094 -0.04445313 2.78492188 -0.03515625 1.93359375 C-0.02355469 1.29550781 -0.01195312 0.65742188 0 0 Z " fill="#852BD5" transform="translate(259,210)"/>
<path d="M0 0 C1.32 0 2.64 0 4 0 C4 3.3 4 6.6 4 10 C3.34 10 2.68 10 2 10 C2 7.36 2 4.72 2 2 C1.34 2 0.68 2 0 2 C0 1.34 0 0.68 0 0 Z " fill="#5326BD" transform="translate(270,208)"/>
<path d="M0 0 C1.65 0 3.3 0 5 0 C4.67 1.65 4.34 3.3 4 5 C2.68 5.33 1.36 5.66 0 6 C-1 3 -1 3 0 0 Z " fill="#668AC5" transform="translate(518,104)"/>
<path d="M0 0 C2.475 0.495 2.475 0.495 5 1 C5 2.32 5 3.64 5 5 C4.01 5.495 4.01 5.495 3 6 C2.34 5.67 1.68 5.34 1 5 C0.375 2.4375 0.375 2.4375 0 0 Z " fill="#6379B5" transform="translate(680,98)"/>
<path d="M0 0 C0.99 0.33 1.98 0.66 3 1 C2.67 2.65 2.34 4.3 2 6 C0.68 5.67 -0.64 5.34 -2 5 C-2 3.68 -2 2.36 -2 1 C-1.34 0.67 -0.68 0.34 0 0 Z " fill="#5B87C4" transform="translate(470,86)"/>
<path d="M0 0 C0.66 0 1.32 0 2 0 C2.33 1.65 2.66 3.3 3 5 C1.35 5.33 -0.3 5.66 -2 6 C-1.125 1.125 -1.125 1.125 0 0 Z " fill="#3F6FB0" transform="translate(358,14)"/>
<path d="M0 0 C0.99 0 1.98 0 3 0 C3 3.3 3 6.6 3 10 C2.34 10 1.68 10 1 10 C0.67 6.7 0.34 3.4 0 0 Z " fill="#7C64A2" transform="translate(895,5)"/>
<path d="M0 0 C2.475 0.99 2.475 0.99 5 2 C4.67 3.32 4.34 4.64 4 6 C2.68 5.67 1.36 5.34 0 5 C0 3.35 0 1.7 0 0 Z " fill="#7A7EB6" transform="translate(652,162)"/>
<path d="M0 0 C2.4375 0.8125 2.4375 0.8125 5 2 C5.33 2.99 5.66 3.98 6 5 C2.25 6.125 2.25 6.125 0 5 C0 3.35 0 1.7 0 0 Z " fill="#6879A9" transform="translate(366,148)"/>
<path d="M0 0 C0.66 1.32 1.32 2.64 2 4 C0.35 5.32 -1.3 6.64 -3 8 C-3.1875 5.125 -3.1875 5.125 -3 2 C-2.01 1.34 -1.02 0.68 0 0 Z " fill="#426AAA" transform="translate(587,106)"/>
<path d="M0 0 C2.31 0 4.62 0 7 0 C5.515 1.485 5.515 1.485 4 3 C3.34 2.67 2.68 2.34 2 2 C2.33 3.32 2.66 4.64 3 6 C2.01 6 1.02 6 0 6 C0 4.02 0 2.04 0 0 Z " fill="#1B135A" transform="translate(92,102)"/>
<path d="M0 0 C0.99 0.33 1.98 0.66 3 1 C3.33 1.99 3.66 2.98 4 4 C2.125 5.0625 2.125 5.0625 0 6 C-0.66 5.67 -1.32 5.34 -2 5 C-2 4.01 -2 3.02 -2 2 C-1.34 2 -0.68 2 0 2 C0 1.34 0 0.68 0 0 Z " fill="#3574C8" transform="translate(570,10)"/>
<path d="M0 0 C2.97 0.495 2.97 0.495 6 1 C5.34 2.32 4.68 3.64 4 5 C2.35 5 0.7 5 -1 5 C-0.67 3.35 -0.34 1.7 0 0 Z " fill="#595279" transform="translate(96,353)"/>
<path d="M0 0 C0.33 1.32 0.66 2.64 1 4 C-0.65 5.32 -2.3 6.64 -4 8 C-4 7.01 -4 6.02 -4 5 C-4.66 4.67 -5.32 4.34 -6 4 C-4.35 3.67 -2.7 3.34 -1 3 C-0.67 2.01 -0.34 1.02 0 0 Z " fill="#3E0C52" transform="translate(283,350)"/>
<path d="M0 0 C0.33 0.66 0.66 1.32 1 2 C2.32 1.67 3.64 1.34 5 1 C4.67 2.65 4.34 4.3 4 6 C2.35 6 0.7 6 -1 6 C-0.67 4.02 -0.34 2.04 0 0 Z " fill="#664977" transform="translate(891,312)"/>
<path d="M0 0 C1.98 0.99 1.98 0.99 4 2 C4 3.32 4 4.64 4 6 C2.68 6.33 1.36 6.66 0 7 C0 4.69 0 2.38 0 0 Z " fill="#824F94" transform="translate(554,310)"/>
<path d="M0 0 C0.66 0.33 1.32 0.66 2 1 C2 2.32 2 3.64 2 5 C-0.97 4.505 -0.97 4.505 -4 4 C-3.67 3.01 -3.34 2.02 -3 1 C-2.01 0.67 -1.02 0.34 0 0 Z " fill="#672279" transform="translate(418,307)"/>
<path d="M0 0 C-0.66 1.32 -1.32 2.64 -2 4 C-3.65 3.67 -5.3 3.34 -7 3 C-6.67 2.01 -6.34 1.02 -6 0 C-3 -1 -3 -1 0 0 Z " fill="#8A5BA2" transform="translate(628,278)"/>
<path d="M0 0 C1.32 0.33 2.64 0.66 4 1 C4 2.65 4 4.3 4 6 C2.68 6 1.36 6 0 6 C0 4.02 0 2.04 0 0 Z " fill="#8E65A5" transform="translate(610,266)"/>
<path d="M0 0 C0.33 1.32 0.66 2.64 1 4 C0.34 4 -0.32 4 -1 4 C-1 4.66 -1 5.32 -1 6 C-2.32 6 -3.64 6 -5 6 C-4.75 4.125 -4.75 4.125 -4 2 C-1.9375 0.75 -1.9375 0.75 0 0 Z " fill="#40158E" transform="translate(275,218)"/>
<path d="M0 0 C0.66 0 1.32 0 2 0 C2.66 3.3 3.32 6.6 4 10 C2.68 9.34 1.36 8.68 0 8 C0 5.36 0 2.72 0 0 Z " fill="#5C1CC7" transform="translate(256,210)"/>
<path d="M0 0 C2.375 -0.1875 2.375 -0.1875 5 0 C5.66 0.99 6.32 1.98 7 3 C5.35 3.66 3.7 4.32 2 5 C1.34 4.34 0.68 3.68 0 3 C0 2.01 0 1.02 0 0 Z " fill="#3F5B9F" transform="translate(607,120)"/>
<path d="M0 0 C0.598125 0.350625 1.19625 0.70125 1.8125 1.0625 C0.8225 1.5575 0.8225 1.5575 -0.1875 2.0625 C-0.5175 3.0525 -0.8475 4.0425 -1.1875 5.0625 C-1.5175 4.4025 -1.8475 3.7425 -2.1875 3.0625 C-3.1775 3.3925 -4.1675 3.7225 -5.1875 4.0625 C-5.1875 2.7425 -5.1875 1.4225 -5.1875 0.0625 C-2.1875 -0.9375 -2.1875 -0.9375 0 0 Z " fill="#5A75AC" transform="translate(667.1875,87.9375)"/>
<path d="M0 0 C1.98 0.495 1.98 0.495 4 1 C3.67 2.32 3.34 3.64 3 5 C1.68 4.67 0.36 4.34 -1 4 C-0.67 2.68 -0.34 1.36 0 0 Z " fill="#CBADCF" transform="translate(502,289)"/>
<path d="M0 0 C0.66 0.66 1.32 1.32 2 2 C2.99 2 3.98 2 5 2 C5.66 1.34 6.32 0.68 7 0 C6.67 1.65 6.34 3.3 6 5 C5.01 5.33 4.02 5.66 3 6 C0.8125 4.5625 0.8125 4.5625 -1 3 C-0.67 2.01 -0.34 1.02 0 0 Z " fill="#30104D" transform="translate(447,272)"/>
<path d="M0 0 C1.98 0.495 1.98 0.495 4 1 C3.67 2.32 3.34 3.64 3 5 C1.68 4.67 0.36 4.34 -1 4 C-0.67 2.68 -0.34 1.36 0 0 Z " fill="#DDD0EB" transform="translate(319,213)"/>
<path d="M0 0 C1.98 0.495 1.98 0.495 4 1 C3.67 2.32 3.34 3.64 3 5 C1.68 4.67 0.36 4.34 -1 4 C-0.67 2.68 -0.34 1.36 0 0 Z " fill="#DCC1F6" transform="translate(230,187)"/>
<path d="M0 0 C1.66611905 -0.042721 3.33382885 -0.04063832 5 0 C6 1 6 1 6.0625 3.5625 C6.041875 4.366875 6.02125 5.17125 6 6 C5.34 5.01 4.68 4.02 4 3 C3.01 3 2.02 3 1 3 C0.34 3.66 -0.32 4.32 -1 5 C-1.33 4.01 -1.66 3.02 -2 2 C-1.34 2 -0.68 2 0 2 C0 1.34 0 0.68 0 0 Z " fill="#080933" transform="translate(28,100)"/>
<path d="M0 0 C0 0.66 0 1.32 0 2 C0.66 2.33 1.32 2.66 2 3 C1.34 3.66 0.68 4.32 0 5 C-1.32 5 -2.64 5 -4 5 C-4 3.68 -4 2.36 -4 1 C-2 0 -2 0 0 0 Z " fill="#5491D4" transform="translate(454,17)"/>
<path d="M0 0 C1.32 0 2.64 0 4 0 C4 0.66 4 1.32 4 2 C4.66 2 5.32 2 6 2 C6 2.66 6 3.32 6 4 C4.02 4 2.04 4 0 4 C0 2.68 0 1.36 0 0 Z " fill="#742281" transform="translate(474,360)"/>
<path d="M0 0 C2.76276177 0.52268466 5.3260876 1.10869587 8 2 C8 2.66 8 3.32 8 4 C5.69 3.67 3.38 3.34 1 3 C0.67 2.01 0.34 1.02 0 0 Z " fill="#771389" transform="translate(394,350)"/>
<path d="M0 0 C1.5625 1.1875 1.5625 1.1875 3 3 C2.6875 5.6875 2.6875 5.6875 2 8 C1.01 7.34 0.02 6.68 -1 6 C-1.25 3.4375 -1.25 3.4375 -1 1 C-0.67 0.67 -0.34 0.34 0 0 Z " fill="#65247A" transform="translate(319,332)"/>
<path d="M0 0 C0.99 0.33 1.98 0.66 3 1 C2.67 2.65 2.34 4.3 2 6 C1.01 6.33 0.02 6.66 -1 7 C-0.67 4.69 -0.34 2.38 0 0 Z " fill="#4B3B82" transform="translate(603,213)"/>
<path d="M0 0 C1.32 0 2.64 0 4 0 C4 1.65 4 3.3 4 5 C2.68 5 1.36 5 0 5 C0 3.35 0 1.7 0 0 Z " fill="#5A629C" transform="translate(594,172)"/>
<path d="M0 0 C1.65 0.33 3.3 0.66 5 1 C4.34 2.32 3.68 3.64 3 5 C1.68 4.67 0.36 4.34 -1 4 C-0.67 2.68 -0.34 1.36 0 0 Z " fill="#5C73A1" transform="translate(351,119)"/>
<path d="M0 0 C1.65 0 3.3 0 5 0 C4.67 1.32 4.34 2.64 4 4 C2.35 3.67 0.7 3.34 -1 3 C-0.67 2.01 -0.34 1.02 0 0 Z " fill="#8582AE" transform="translate(774,114)"/>
<path d="M0 0 C1 3 1 3 0.0625 5.1875 C-0.4634375 6.0846875 -0.4634375 6.0846875 -1 7 C-2.32 6.67 -3.64 6.34 -5 6 C-5 5.01 -5 4.02 -5 3 C-4.360625 2.87625 -3.72125 2.7525 -3.0625 2.625 C-2.0415625 2.315625 -2.0415625 2.315625 -1 2 C-0.67 1.34 -0.34 0.68 0 0 Z " fill="#231875" transform="translate(75,109)"/>
<path d="M0 0 C1.65 0 3.3 0 5 0 C5 0.99 5 1.98 5 3 C3.35 3.33 1.7 3.66 0 4 C0 2.68 0 1.36 0 0 Z " fill="#4B7FBD" transform="translate(526,70)"/>
<path d="M0 0 C1.9375 0.375 1.9375 0.375 4 1 C4.33 1.66 4.66 2.32 5 3 C4.67 3.66 4.34 4.32 4 5 C2.68 5 1.36 5 0 5 C0 3.35 0 1.7 0 0 Z " fill="#5E91CB" transform="translate(410,33)"/>
<path d="M0 0 C1.32 0.66 2.64 1.32 4 2 C3.67 2.99 3.34 3.98 3 5 C1.68 5 0.36 5 -1 5 C-0.67 3.35 -0.34 1.7 0 0 Z " fill="#4777B6" transform="translate(365,27)"/>
<path d="M0 0 C1.32 0.66 2.64 1.32 4 2 C3.67 2.99 3.34 3.98 3 5 C1.68 5 0.36 5 -1 5 C-0.67 3.35 -0.34 1.7 0 0 Z " fill="#3767BB" transform="translate(645,25)"/>
<path d="M0 0 C1.98 0 3.96 0 6 0 C5.67 1.32 5.34 2.64 5 4 C4.67 3.34 4.34 2.68 4 2 C3.34 2 2.68 2 2 2 C2 2.66 2 3.32 2 4 C1.34 4 0.68 4 0 4 C0 2.68 0 1.36 0 0 Z " fill="#3D0D53" transform="translate(598,322)"/>
<path d="M0 0 C2.4375 0.375 2.4375 0.375 5 1 C5.33 1.66 5.66 2.32 6 3 C4.02 3.33 2.04 3.66 0 4 C0 2.68 0 1.36 0 0 Z " fill="#656BA3" transform="translate(514,188)"/>
<path d="M0 0 C-1.125 1.5 -1.125 1.5 -3 3 C-6.1875 3.1875 -6.1875 3.1875 -9 3 C-9 2.34 -9 1.68 -9 1 C-3.375 -1.125 -3.375 -1.125 0 0 Z " fill="#414F9C" transform="translate(485,173)"/>
<path d="M0 0 C0.99 0.33 1.98 0.66 3 1 C3.33 1.99 3.66 2.98 4 4 C2.35 4.33 0.7 4.66 -1 5 C-0.67 3.35 -0.34 1.7 0 0 Z " fill="#28245C" transform="translate(93,119)"/>
<path d="M0 0 C1.32 0 2.64 0 4 0 C4.33 1.32 4.66 2.64 5 4 C3.35 4.33 1.7 4.66 0 5 C0 3.35 0 1.7 0 0 Z " fill="#424B84" transform="translate(152,44)"/>
<path d="M0 0 C1.32 0.33 2.64 0.66 4 1 C4 2.32 4 3.64 4 5 C2.68 4.67 1.36 4.34 0 4 C0 2.68 0 1.36 0 0 Z " fill="#3870B9" transform="translate(570,38)"/>
<path d="M0 0 C1.98 0.66 3.96 1.32 6 2 C6 2.66 6 3.32 6 4 C4.02 4.33 2.04 4.66 0 5 C-0.33 4.01 -0.66 3.02 -1 2 C-0.67 1.34 -0.34 0.68 0 0 Z " fill="#335BAA" transform="translate(662,28)"/>
<path d="M0 0 C1.98 0 3.96 0 6 0 C6 0.66 6 1.32 6 2 C4 3.625 4 3.625 2 5 C1.01 4.34 0.02 3.68 -1 3 C-0.67 2.01 -0.34 1.02 0 0 Z " fill="#6986C4" transform="translate(686,21)"/>
<path d="M0 0 C1.32 0 2.64 0 4 0 C4 1.65 4 3.3 4 5 C2.68 4.67 1.36 4.34 0 4 C0 2.68 0 1.36 0 0 Z " fill="#3F5AAB" transform="translate(732,5)"/>
<path d="M0 0 C0.99 0.33 1.98 0.66 3 1 C3 2.32 3 3.64 3 5 C1.68 5 0.36 5 -1 5 C-0.67 3.35 -0.34 1.7 0 0 Z " fill="#975B9F" transform="translate(439,349)"/>
<path d="M0 0 C0.66 0 1.32 0 2 0 C2 0.99 2 1.98 2 3 C3.32 2.67 4.64 2.34 6 2 C5.67 2.99 5.34 3.98 5 5 C3.35 5 1.7 5 0 5 C0 3.35 0 1.7 0 0 Z " fill="#1F0635" transform="translate(888,315)"/>
<path d="M0 0 C0.625 1.875 0.625 1.875 1 4 C0.34 4.66 -0.32 5.32 -1 6 C-2.32 6 -3.64 6 -5 6 C-5 5.34 -5 4.68 -5 4 C-5.66 3.67 -6.32 3.34 -7 3 C-5.02 3 -3.04 3 -1 3 C-0.67 2.01 -0.34 1.02 0 0 Z " fill="#490F63" transform="translate(327,308)"/>
<path d="M0 0 C1.98 0.495 1.98 0.495 4 1 C4 1.99 4 2.98 4 4 C2.35 4 0.7 4 -1 4 C-0.67 2.68 -0.34 1.36 0 0 Z " fill="#CDBBD9" transform="translate(732,227)"/>
<path d="M0 0 C1.98 0.495 1.98 0.495 4 1 C4 1.99 4 2.98 4 4 C2.35 4 0.7 4 -1 4 C-0.67 2.68 -0.34 1.36 0 0 Z " fill="#65548A" transform="translate(310,217)"/>
<path d="M0 0 C1.32 0 2.64 0 4 0 C3.67 1.32 3.34 2.64 3 4 C1.68 4 0.36 4 -1 4 C-0.67 2.68 -0.34 1.36 0 0 Z " fill="#6679B6" transform="translate(541,155)"/>
<path d="M0 0 C1.32 0 2.64 0 4 0 C4 0.99 4 1.98 4 3 C2.02 3.33 0.04 3.66 -2 4 C-1.34 2.68 -0.68 1.36 0 0 Z " fill="#829FC8" transform="translate(542,112)"/>
<path d="M0 0 C1.98 0 3.96 0 6 0 C4.6875 2 4.6875 2 3 4 C2.01 4 1.02 4 0 4 C0 2.68 0 1.36 0 0 Z " fill="#4A7EB8" transform="translate(402,50)"/>
<path d="M0 0 C0.33 0.66 0.66 1.32 1 2 C1.66 2 2.32 2 3 2 C3 3.32 3 4.64 3 6 C1.68 6 0.36 6 -1 6 C-0.67 4.02 -0.34 2.04 0 0 Z " fill="#476BAA" transform="translate(331,46)"/>
<path d="M0 0 C0.99 0 1.98 0 3 0 C3.33 1.98 3.66 3.96 4 6 C2.68 5.67 1.36 5.34 0 5 C0 3.35 0 1.7 0 0 Z " fill="#5590D1" transform="translate(460,32)"/>
<path d="M0 0 C1.32 0 2.64 0 4 0 C4 1.65 4 3.3 4 5 C2.68 4.67 1.36 4.34 0 4 C0 2.68 0 1.36 0 0 Z " fill="#2A63BB" transform="translate(628,4)"/>
<path d="M0 0 C1.32 0 2.64 0 4 0 C4 1.65 4 3.3 4 5 C2.68 4.67 1.36 4.34 0 4 C0 2.68 0 1.36 0 0 Z " fill="#484B8E" transform="translate(118,6)"/>
<path d="M0 0 C1.125 3.75 1.125 3.75 0 6 C-0.66 6 -1.32 6 -2 6 C-2.33 5.01 -2.66 4.02 -3 3 C-3.99 2.34 -4.98 1.68 -6 1 C-3.92446352 0.4465236 -2.15634036 0 0 0 Z " fill="#11073C" transform="translate(97,358)"/>
<path d="M0 0 C1.32 0 2.64 0 4 0 C3.67 1.32 3.34 2.64 3 4 C1.68 4 0.36 4 -1 4 C-0.67 2.68 -0.34 1.36 0 0 Z " fill="#712881" transform="translate(527,348)"/>
<path d="M0 0 C1.32 0 2.64 0 4 0 C3.67 1.65 3.34 3.3 3 5 C1.68 4.67 0.36 4.34 -1 4 C-0.67 2.68 -0.34 1.36 0 0 Z " fill="#95619F" transform="translate(457,338)"/>
<path d="M0 0 C1.0625 1.875 1.0625 1.875 2 4 C1.67 4.66 1.34 5.32 1 6 C-1.0625 6.625 -1.0625 6.625 -3 7 C-3 6.01 -3 5.02 -3 4 C-2.34 4 -1.68 4 -1 4 C-0.67 2.68 -0.34 1.36 0 0 Z " fill="#69087A" transform="translate(363,334)"/>
<path d="M0 0 C0.99 0 1.98 0 3 0 C3 0.66 3 1.32 3 2 C3.99 1.67 4.98 1.34 6 1 C5.67 2.32 5.34 3.64 5 5 C4.34 5 3.68 5 3 5 C3 4.34 3 3.68 3 3 C2.01 3 1.02 3 0 3 C0 2.01 0 1.02 0 0 Z " fill="#2F084D" transform="translate(691,289)"/>
<path d="M0 0 C1.32 0.66 2.64 1.32 4 2 C3.67 2.99 3.34 3.98 3 5 C2.01 5.33 1.02 5.66 0 6 C-0.38218767 4.34385343 -0.71395102 2.67542976 -1 1 C-0.67 0.67 -0.34 0.34 0 0 Z " fill="#67337F" transform="translate(507,286)"/>
<path d="M0 0 C0 1.65 0 3.3 0 5 C-1.32 4.67 -2.64 4.34 -4 4 C-4 3.01 -4 2.02 -4 1 C-2 0 -2 0 0 0 Z M-3 5 C-1 6 -1 6 -1 6 Z " fill="#51256D" transform="translate(334,262)"/>
<path d="M0 0 C0.66 0 1.32 0 2 0 C2 0.66 2 1.32 2 2 C2.66 2 3.32 2 4 2 C4.33 1.34 4.66 0.68 5 0 C5.33 0.99 5.66 1.98 6 3 C5 4 5 4 2.4375 4.0625 C1.2309375 4.0315625 1.2309375 4.0315625 0 4 C0 2.68 0 1.36 0 0 Z " fill="#2D1051" transform="translate(448,250)"/>
<path d="M0 0 C1.98 0.495 1.98 0.495 4 1 C4 1.99 4 2.98 4 4 C2.35 4 0.7 4 -1 4 C-0.67 2.68 -0.34 1.36 0 0 Z " fill="#483D77" transform="translate(130,249)"/>
<path d="M0 0 C0.66 0 1.32 0 2 0 C2.33 2.31 2.66 4.62 3 7 C2.01 6.67 1.02 6.34 0 6 C0 4.02 0 2.04 0 0 Z " fill="#230532" transform="translate(860,218)"/>
<path d="M0 0 C0.66 0 1.32 0 2 0 C1.67 1.98 1.34 3.96 1 6 C0.01 6 -0.98 6 -2 6 C-1.49396008 3.83125748 -1.00016187 2.00032373 0 0 Z " fill="#361646" transform="translate(916,194)"/>
<path d="M0 0 C2.475 0.495 2.475 0.495 5 1 C4.67 1.99 4.34 2.98 4 4 C2.68 3.67 1.36 3.34 0 3 C0 2.01 0 1.02 0 0 Z " fill="#C7CBE3" transform="translate(369,164)"/>
<path d="M0 0 C1.32 0 2.64 0 4 0 C3.67 1.32 3.34 2.64 3 4 C1.68 3.67 0.36 3.34 -1 3 C-0.67 2.01 -0.34 1.02 0 0 Z " fill="#8495BF" transform="translate(626,136)"/>
<path d="M0 0 C1.98 0.495 1.98 0.495 4 1 C4 1.99 4 2.98 4 4 C2.35 3.67 0.7 3.34 -1 3 C-0.67 2.01 -0.34 1.02 0 0 Z " fill="#C4D2E2" transform="translate(298,96)"/>
<path d="M0 0 C0.66 0 1.32 0 2 0 C2 1.32 2 2.64 2 4 C0.02 4.66 -1.96 5.32 -4 6 C-2.7260411 3.96166576 -1.38938077 1.96147874 0 0 Z " fill="#2256BC" transform="translate(654,64)"/>
<path d="M0 0 C0.66 0 1.32 0 2 0 C3.625 2 3.625 2 5 4 C3.35 4.66 1.7 5.32 0 6 C0 4.02 0 2.04 0 0 Z " fill="#1C4EA9" transform="translate(626,47)"/>
<path d="M0 0 C1.32 0 2.64 0 4 0 C3.67 1.65 3.34 3.3 3 5 C2.01 4.67 1.02 4.34 0 4 C0 2.68 0 1.36 0 0 Z " fill="#4977B1" transform="translate(376,50)"/>
<path d="M0 0 C-0.33 0.66 -0.66 1.32 -1 2 C-1.99 2.33 -2.98 2.66 -4 3 C-4.66 3.66 -5.32 4.32 -6 5 C-6 3.35 -6 1.7 -6 0 C-3.50907189 -1.24546405 -2.58919267 -0.7767578 0 0 Z " fill="#27529C" transform="translate(620,46)"/>
<path d="M0 0 C1.32 0 2.64 0 4 0 C4 1.32 4 2.64 4 4 C2.68 4 1.36 4 0 4 C-0.33 3.01 -0.66 2.02 -1 1 C-0.67 0.67 -0.34 0.34 0 0 Z " fill="#46639E" transform="translate(269,36)"/>
<path d="M0 0 C0.99 0.33 1.98 0.66 3 1 C3 2.65 3 4.3 3 6 C2.01 6 1.02 6 0 6 C0 4.02 0 2.04 0 0 Z " fill="#5692CF" transform="translate(474,24)"/>
<path d="M0 0 C1.32 0 2.64 0 4 0 C4 1.32 4 2.64 4 4 C2.35 4 0.7 4 -1 4 C-0.67 2.68 -0.34 1.36 0 0 Z " fill="#3572C1" transform="translate(562,12)"/>
</svg>
