<svg width="1920" height="1080" viewBox="0 0 1920 1080" xmlns="http://www.w3.org/2000/svg"><path d="M1920,1080C1602.3333333333333,1088.8333333333333,275.3333333333333,1083,0,1080C-275.3333333333333,1077,177,1064.3333333333333,268,1062C359,1059.6666666666667,454.3333333333333,1073.6666666666667,546,1066C637.6666666666666,1058.3333333333333,726.3333333333334,1019.5,818,1016C909.6666666666666,1012.5,1004,1055.8333333333333,1096,1045C1188,1034.1666666666667,1280.6666666666667,950.6666666666666,1370,951C1459.3333333333333,951.3333333333334,1542.6666666666667,1034.3333333333333,1632,1047C1721.3333333333333,1059.6666666666667,1858,1021.5,1906,1027C1954,1032.5,2237.6666666666665,1071.1666666666667,1920,1080C1602.3333333333333,1088.8333333333333,275.3333333333333,1083,0,1080" fill="#ffffff"/></svg>