<svg width="67" height="74" viewBox="0 0 67 74" fill="none" xmlns="http://www.w3.org/2000/svg">
<path d="M30.4326 0.787407C32.2826 -0.260155 34.6413 -0.26478 36.4451 0.787407L64.0656 16.3575C65.793 17.3287 66.9493 19.255 66.9331 21.2461V52.4649C66.9446 54.5392 65.6751 56.5071 63.8528 57.4598L36.3803 72.9582C35.4407 73.4775 34.3791 73.7357 33.306 73.706C32.2328 73.6763 31.1871 73.3598 30.2776 72.7894L22.0336 68.0257C21.4716 67.6904 20.8403 67.4244 20.4426 66.881C20.7941 66.4092 21.4185 66.3491 21.9272 66.141C23.0742 65.7756 24.1241 65.216 25.1786 64.624C25.4445 64.439 25.7706 64.5084 26.025 64.6749L33.055 68.7402C33.5568 69.0293 34.0655 68.6477 34.4956 68.4049L61.471 53.1817C61.804 53.0198 61.989 52.6684 61.9612 52.303V21.3848C61.9982 20.9686 61.76 20.5893 61.3831 20.4205L33.98 4.98922C33.822 4.87999 33.6347 4.82129 33.4427 4.82088C33.2506 4.82047 33.063 4.87836 32.9046 4.98691L5.54083 20.4506C5.17083 20.6194 4.91645 20.994 4.9627 21.4103V52.3284C4.93033 52.6938 5.12458 53.0384 5.45989 53.1956L12.772 57.3234C14.1456 58.0634 15.8315 58.4797 17.3438 57.9362C18.0057 57.6868 18.5754 57.241 18.9767 56.6587C19.3781 56.0763 19.5918 55.3852 19.5893 54.6779L19.5962 23.9448C19.5638 23.4892 19.994 23.1123 20.4356 23.1585H23.9506C24.4131 23.147 24.7762 23.6372 24.7138 24.0951L24.7068 55.0225C24.7091 57.7697 23.5806 60.7575 21.0392 62.1057C17.9081 63.7244 14.037 63.3845 10.9428 61.8282L3.08033 57.4807C1.23033 56.5557 -0.0114824 54.5577 8.00623e-05 52.4857V21.2669C0.0077722 20.2523 0.286715 19.2581 0.807991 18.3876C1.32927 17.517 2.0739 16.8017 2.9647 16.3158L30.4326 0.787407ZM38.3968 22.4278C42.3905 22.1965 46.6663 22.2752 50.26 24.2431C53.0419 25.7508 54.5843 28.9144 54.6352 32.0085C54.5566 32.4247 54.1218 32.656 53.7241 32.6259C52.5678 32.6236 51.407 32.6421 50.2461 32.619C49.7535 32.6375 49.4691 32.1842 49.4066 31.7495C49.0736 30.2695 48.2666 28.8057 46.8745 28.0911C44.7377 27.0204 42.2587 27.0736 39.9277 27.0967C38.2257 27.1892 36.3965 27.3349 34.9558 28.3339C33.8458 29.0924 33.5128 30.6464 33.9083 31.8535C34.2783 32.7392 35.3027 33.0237 36.1375 33.2873C40.9521 34.5453 46.0512 34.4435 50.7756 36.0785C52.7297 36.7537 54.6421 38.0672 55.3128 40.1138C56.1869 42.8564 55.8053 46.1355 53.8559 48.337C52.2741 50.15 49.9709 51.112 47.67 51.6717C44.6105 52.3538 41.4378 52.37 38.3321 52.0648C35.4114 51.7318 32.3728 50.964 30.1181 48.9753C28.1895 47.301 27.2506 44.6925 27.3431 42.1765C27.3662 41.751 27.7894 41.455 28.1987 41.4897H31.6675C32.1346 41.4573 32.4768 41.8597 32.5 42.2991C32.715 43.6866 33.2446 45.1897 34.4748 45.9991C36.8475 47.53 39.8236 47.4236 42.5385 47.4675C44.7886 47.3681 47.3138 47.338 49.1523 45.8488C50.1235 45.0001 50.408 43.5825 50.1466 42.3615C49.8622 41.3302 48.7591 40.8515 47.8341 40.5115C43.082 39.0084 37.9251 39.5542 33.2191 37.8522C31.309 37.1769 29.4613 35.9004 28.7283 33.9371C27.7038 31.1621 28.1733 27.7234 30.3308 25.5959C32.4121 23.48 35.4646 22.6637 38.3552 22.3723L38.3968 22.4278Z" fill="#8CC84B"/>
</svg>
