<svg width="65" height="65" viewBox="0 0 65 65" fill="none" xmlns="http://www.w3.org/2000/svg">
<g clip-path="url(#clip0_27_8)">
<path d="M51.6438 0.890381H13.3562C6.47152 0.890381 0.890411 6.47149 0.890411 13.3561V51.6438C0.890411 58.5285 6.47152 64.1096 13.3562 64.1096H51.6438C58.5285 64.1096 64.1096 58.5285 64.1096 51.6438V13.3561C64.1096 6.47149 58.5285 0.890381 51.6438 0.890381Z" fill="white" stroke="#0C6D87"/>
<path d="M54.253 32.7325C54.253 29.8505 50.6438 27.1191 45.1102 25.4254C46.3872 19.7854 45.8196 15.2982 43.3189 13.8616C42.7424 13.5246 42.0685 13.365 41.3324 13.365V15.3426C41.7404 15.3426 42.0685 15.4224 42.3434 15.5731C43.5494 16.2648 44.0726 18.8986 43.6647 22.2861C43.5672 23.1197 43.4075 23.9976 43.2124 24.8933C41.4743 24.4676 39.5766 24.1395 37.5813 23.9267C36.3841 22.2861 35.1426 20.7963 33.8923 19.4927C36.7832 16.8058 39.4968 15.3337 41.3413 15.3337V13.3561C38.9026 13.3561 35.7102 15.0943 32.4823 18.1093C29.2543 15.112 26.0619 13.3916 23.6232 13.3916V15.3692C25.4589 15.3692 28.1813 16.8324 31.0723 19.5016C29.8308 20.8052 28.5893 22.2861 27.4098 23.9267C25.4057 24.1395 23.5079 24.4676 21.7698 24.9022C21.5659 24.0154 21.4151 23.1552 21.3087 22.3305C20.8919 18.9429 21.4062 16.3092 22.6034 15.6086C22.8694 15.449 23.2153 15.378 23.6232 15.378V13.4005C22.8783 13.4005 22.2044 13.5601 21.6191 13.8971C19.1272 15.3337 18.5685 19.812 19.8544 25.4342C14.3385 27.1369 10.747 29.8593 10.747 32.7325C10.747 35.6146 14.3563 38.3459 19.8898 40.0397C18.6128 45.6797 19.1804 50.1669 21.6811 51.6035C22.2576 51.9404 22.9315 52.1001 23.6764 52.1001C26.1151 52.1001 29.3076 50.3619 32.5355 47.3469C35.7634 50.3442 38.9558 52.0646 41.3945 52.0646C42.1394 52.0646 42.8134 51.905 43.3987 51.568C45.8906 50.1314 46.4492 45.6531 45.1634 40.0308C50.6615 38.3371 54.253 35.6057 54.253 32.7325ZM42.707 26.8176C42.3789 27.9616 41.9709 29.141 41.5098 30.3205C41.1462 29.611 40.7649 28.9016 40.3481 28.1922C39.9402 27.4827 39.5057 26.791 39.0711 26.1171C40.3304 26.3033 41.5453 26.5339 42.707 26.8176ZM38.6455 36.262C37.9538 37.4591 37.2443 38.5942 36.5083 39.6495C35.187 39.7648 33.8479 39.8269 32.5 39.8269C31.1609 39.8269 29.8219 39.7648 28.5094 39.6584C27.7734 38.6031 27.0551 37.4769 26.3634 36.2886C25.6894 35.1269 25.0776 33.9474 24.5189 32.7591C25.0687 31.5708 25.6894 30.3825 26.3545 29.2208C27.0462 28.0237 27.7557 26.8886 28.4917 25.8333C29.813 25.718 31.1521 25.6559 32.5 25.6559C33.8391 25.6559 35.1781 25.718 36.4906 25.8244C37.2266 26.8797 37.9449 28.0059 38.6366 29.1942C39.3106 30.3559 39.9224 31.5354 40.4811 32.7237C39.9224 33.912 39.3106 35.1003 38.6455 36.262ZM41.5098 35.1091C41.9887 36.2974 42.3966 37.4857 42.7336 38.6386C41.5719 38.9223 40.3481 39.1618 39.08 39.348C39.5145 38.6652 39.9491 37.9646 40.357 37.2463C40.7649 36.5369 41.1462 35.8186 41.5098 35.1091ZM32.5177 44.5712C31.693 43.7199 30.8683 42.771 30.0525 41.7335C30.8506 41.7689 31.6664 41.7955 32.4911 41.7955C33.3247 41.7955 34.1494 41.7778 34.9564 41.7335C34.1583 42.771 33.3336 43.7199 32.5177 44.5712ZM25.92 39.348C24.6608 39.1618 23.4459 38.9312 22.2842 38.6474C22.6123 37.5035 23.0202 36.324 23.4813 35.1446C23.8449 35.854 24.2262 36.5635 24.643 37.2729C25.0598 37.9823 25.4855 38.674 25.92 39.348ZM32.4734 20.8939C33.2981 21.7452 34.1228 22.6941 34.9387 23.7316C34.1406 23.6961 33.3247 23.6695 32.5 23.6695C31.6664 23.6695 30.8417 23.6873 30.0347 23.7316C30.8328 22.6941 31.6575 21.7452 32.4734 20.8939ZM25.9111 26.1171C25.4766 26.7999 25.0421 27.5005 24.6342 28.2188C24.2262 28.9282 23.8449 29.6376 23.4813 30.3471C23.0025 29.1588 22.5945 27.9705 22.2576 26.8176C23.4193 26.5427 24.643 26.3033 25.9111 26.1171ZM17.8857 37.2197C14.7464 35.8806 12.7157 34.1248 12.7157 32.7325C12.7157 31.3403 14.7464 29.5756 17.8857 28.2454C18.6483 27.9173 19.4819 27.6246 20.3421 27.3497C20.8476 29.0878 21.5127 30.8969 22.3374 32.7503C21.5215 34.5948 20.8653 36.395 20.3687 38.1242C19.4908 37.8493 18.6572 37.5478 17.8857 37.2197ZM22.6566 49.8919C21.4506 49.2003 20.9274 46.5665 21.3353 43.1789C21.4328 42.3454 21.5925 41.4674 21.7876 40.5718C23.5257 40.9974 25.4234 41.3255 27.4187 41.5384C28.6159 43.1789 29.8574 44.6687 31.1077 45.9723C28.2168 48.6593 25.5032 50.1314 23.6587 50.1314C23.2596 50.1225 22.9227 50.0427 22.6566 49.8919ZM43.6913 43.1346C44.1081 46.5221 43.5938 49.1559 42.3966 49.8565C42.1306 50.0161 41.7847 50.087 41.3768 50.087C39.5411 50.087 36.8187 48.6238 33.9277 45.9546C35.1692 44.651 36.4108 43.1701 37.5902 41.5295C39.5943 41.3167 41.4921 40.9886 43.2302 40.554C43.4341 41.4497 43.5938 42.3099 43.6913 43.1346ZM47.1055 37.2197C46.3428 37.5478 45.5092 37.8405 44.649 38.1154C44.1436 36.3772 43.4785 34.5682 42.6538 32.7148C43.4696 30.8703 44.1258 29.0701 44.6224 27.3408C45.5004 27.6157 46.334 27.9173 47.1143 28.2454C50.2536 29.5844 52.2843 31.3403 52.2843 32.7325C52.2755 34.1248 50.2447 35.8895 47.1055 37.2197Z" fill="#61DAFB"/>
<path d="M32.4911 36.7851C34.7293 36.7851 36.5437 34.9707 36.5437 32.7325C36.5437 30.4943 34.7293 28.6799 32.4911 28.6799C30.2529 28.6799 28.4385 30.4943 28.4385 32.7325C28.4385 34.9707 30.2529 36.7851 32.4911 36.7851Z" fill="#61DAFB"/>
</g>
<defs>
<clipPath id="clip0_27_8">
<rect width="65" height="65" fill="white"/>
</clipPath>
</defs>
</svg>
